<?xml version="1.0" standalone="no"?>
<!DOCTYPE svg PUBLIC "-//W3C//DTD SVG 1.1//EN" "http://www.w3.org/Graphics/SVG/1.1/DTD/svg11.dtd">
<svg xmlns="http://www.w3.org/2000/svg">
<metadata>Generated by Fontastic.me</metadata>
<defs>
<font id="entypo" horiz-adv-x="512">
<font-face font-family="entypo" units-per-em="512" ascent="480" descent="-32"/>
<missing-glyph horiz-adv-x="512" />

<glyph unicode="&#97;" d="M218 486c7 0 10-3 10-10c0 0 0-440 0-440c0-7-3-10-10-10c0 0-23 0-23 0c-7 0-11 3-11 10c0 0 0 225 0 225c0 0-90 0-90 0c-5 0-10 1-14 3c-4 1-9 3-13 6c0 0-62 42-62 42c-3 2-5 5-5 9c0 3 2 6 5 8c0 0 62 42 62 42c4 3 9 5 13 6c3 1 7 2 14 2c0 0 90 0 90 0c0 0 0 97 0 97c0 7 4 10 11 10c0 0 23 0 23 0m289-106c3-2 5-5 5-8c0-4-2-6-5-8c0 0-61-42-61-42c-7-5-11-7-13-7c-5-2-9-3-14-3c0 0-155 0-155 0c0 0-20 118-20 118c0 0 175 0 175 0c6 0 11-1 14-2c4-1 8-3 13-6c0 0 61-42 61-42"/>
<glyph unicode="&#98;" d="M486 276c7 0 13-2 18-6c5-4 8-9 8-14c0-14-9-20-26-20c0 0-24 0-24 0c-17 0-26 6-26 20c0 5 3 10 8 14c5 4 11 6 18 6c0 0 24 0 24 0m-230 120c39 0 72-13 100-41c27-27 41-60 41-99c0-40-14-73-41-100c-28-28-61-41-100-41c-39 0-72 13-99 41c-28 27-41 60-41 100c0 39 13 72 41 99c27 28 60 41 99 41m3-242c0 0 0 204 0 204c-29 0-54-10-75-30c-20-20-30-44-30-72c0-29 10-53 30-73c21-20 46-29 75-29m-182 102c0-14-9-20-26-20c0 0-25 0-25 0c-17 0-26 6-26 20c0 5 3 10 8 14c5 4 11 6 18 6c0 0 25 0 25 0c7 0 13-2 18-6c5-4 8-9 8-14m179 179c-5 0-10 3-14 8c-4 5-6 11-6 18c0 0 0 25 0 25c0 7 2 13 6 18c4 5 9 8 14 8c5 0 10-3 14-8c4-5 6-11 6-18c0 0 0-25 0-25c0-7-2-13-6-18c-4-5-9-8-14-8m0-358c5 0 10-3 14-8c4-5 6-11 6-18c0 0 0-25 0-25c0-7-2-13-6-18c-4-5-9-8-14-8c-5 0-10 3-14 8c-4 5-6 11-6 18c0 0 0 25 0 25c0 7 2 13 6 18c4 5 9 8 14 8m188 338c0 0-17-18-17-18c-12-11-23-13-33-4c-9 10-8 21 4 33c2 2 8 8 18 18c12 12 23 13 33 3c9-9 8-20-5-32m-358-301c5 5 10 8 17 9c6 1 11-1 15-5c4-4 6-10 5-16c-1-7-4-12-8-17c0 0-19-18-19-18c-5-5-10-8-17-9c-6 0-11 1-14 5c-11 10-10 21 3 33c2 2 8 7 18 18m10 330c0 0 19-18 19-18c12-12 13-23 3-33c-4-3-9-5-15-4c-7 1-12 4-17 8c-10 11-16 16-18 18c-5 4-8 10-9 17c0 6 1 11 6 15c3 5 8 6 14 6c7-1 12-4 17-9m302-359c-12 12-13 23-4 33c10 9 21 8 33-4c0 0 17-18 17-18c13-12 14-23 5-33c-10-9-21-8-33 4c-10 10-16 16-18 18"/>
<glyph unicode="&#99;" d="M68 350c-6-5-12-7-19-6c-7 1-12 4-17 9c-5 5-7 11-6 19c0 7 3 13 9 18c16 14 30 24 40 31c11 7 26 14 46 20c20 7 42 8 66 2c24-5 51-16 81-33c30-17 57-27 80-28c23-1 40 2 51 9c11 6 26 18 45 34c13 10 25 9 36-3c11-14 10-26-3-37c-41-38-81-56-120-56c-34 0-72 12-113 36c-23 13-44 21-61 26c-18 5-33 5-48 0c-14-5-25-10-33-15c-8-5-19-14-34-26m376-56c13 11 25 10 36-3c11-14 10-26-3-37c-13-12-25-21-33-27c-9-7-21-13-37-20c-16-6-33-9-50-9c-32 0-70 12-113 35c-23 13-44 22-61 27c-18 5-33 5-48 0c-14-5-25-10-33-15c-8-5-19-14-34-26c-5-5-11-7-18-6c-8 1-13 4-18 9c-11 14-10 26 3 37c13 12 23 20 31 26c7 5 19 12 35 19c16 8 31 12 45 12c14 0 32-2 54-8c22-5 44-15 68-28c24-13 44-22 61-27c18-5 33-5 48 0c14 5 25 10 33 15c8 5 19 14 34 26m0-131c13 11 25 10 36-3c5-5 7-11 6-19c0-7-3-13-9-18c-13-12-25-21-33-27c-9-7-21-13-37-20c-16-6-33-9-50-9c-32 0-70 12-113 35c-23 13-44 22-61 27c-18 5-33 5-48 1c-14-5-25-10-34-15c-8-6-19-15-33-27c-5-5-11-7-18-6c-8 1-13 4-18 9c-11 14-10 26 3 37c13 12 23 20 31 26c7 5 19 12 35 19c16 8 31 11 45 12c14 0 32-2 54-8c22-5 44-15 68-29c24-12 44-21 61-26c18-5 33-5 48 0c14 5 25 10 33 15c8 5 19 14 34 26"/>
<glyph unicode="&#100;" d="M478 197c7-6 10-11 8-17c-1-6-6-10-14-12c0 0-40-11-40-11c-8-2-15-7-20-15c-6-7-8-15-7-24c0 0 2-42 2-42c0-8-2-14-8-18c-5-3-12-3-19 0c0 0-44 23-44 23c-8 4-16 5-24 2c-9-3-15-8-18-15c0 0-24-45-24-45c-4-8-9-12-14-12c-6-1-12 3-17 9c0 0-26 40-26 40c-12 17-27 20-45 11c0 0-62-36-62-36c-8-5-13-6-17-3c-3 2-4 8-1 16c0 0 28 84 28 84c3 8 2 16-2 23c-4 6-11 10-19 11c0 0-54 6-54 6c-8 1-13 4-15 9c-2 5 1 10 8 16c0 0 44 39 44 39c7 5 10 12 10 21c0 8-3 15-10 21c0 0-44 38-44 38c-7 6-10 12-8 17c1 6 6 10 14 12c0 0 40 11 40 11c8 2 15 7 21 15c6 7 8 15 8 24c0 0-3 42-3 42c0 9 2 15 7 19c5 3 12 3 19 0c0 0 41-20 41-20c8-3 17-4 25-1c9 3 15 8 19 16c0 0 24 41 24 41c4 7 9 11 15 10c6 0 11-4 15-12c0 0 26-44 26-44c4-7 10-12 18-14c8-3 15-2 23 3c0 0 70 43 70 43c7 5 12 6 15 3c3-2 3-8 0-16c0 0-31-87-31-87c-3-8-3-15 1-21c4-7 11-10 20-11c0 0 58-6 58-6c9-1 14-3 15-8c2-5-1-10-8-16c0 0-44-38-44-38c-6-6-9-13-9-21c0-9 3-16 9-21c0 0 44-39 44-39m-196-47c0 0 0 53 0 53c0 0-52 0-52 0c0 0 0-53 0-53c0 0 52 0 52 0m0 81c0 0 0 134 0 134c0 0-52 0-52 0c0 0 0-134 0-134c0 0 52 0 52 0"/>
<glyph unicode="&#101;" d="M435 384c0 0 0-26 0-26c0 0-357 0-357 0c0 0 0 26 0 26c0 8 3 13 7 18c5 4 9 7 13 8c0 0 6 0 6 0c0 0 305 0 305 0c2 0 5-1 7-1c3 0 7-3 12-7c4-5 7-10 7-18m-76 77c2 0 4 0 7-1c3 0 7-2 11-7c5-4 8-10 8-18c0 0-255 0-255 0c0 8 2 14 6 18c5 5 9 7 13 8c0 0 6 0 6 0c0 0 204 0 204 0m127-103c12-11 18-18 19-23c3-6 3-16 0-28c0 0-38-230-38-230c-2-8-5-14-11-18c-5-5-10-7-14-8c0 0-7 0-7 0c0 0-357 0-357 0c-17 0-28 9-30 26c-2 9-9 47-20 114c-11 67-18 106-20 116c-4 8-4 15-2 23c3 7 4 12 5 13c1 1 5 5 11 10c0 0 5 5 5 5c0 0 16 16 16 16c0 0 0-41 0-41c0 0 428 0 428 0c0 0 0 41 0 41c0 0 15-16 15-16m-127-138c0 0 0 51 0 51c0 0-36 0-36 0c0 0 0-41 0-41c0 0-133 0-133 0c0 0 0 41 0 41c0 0-35 0-35 0c0 0 0-51 0-51c0-17 8-25 25-25c0 0 153 0 153 0c8 0 14 2 18 6c5 4 7 8 7 12c0 0 1 7 1 7"/>
<glyph unicode="&#102;" d="M256 512c0 0 118-186 118-186c0 0-236 0-236 0c0 0 118 186 118 186m0-512c0 0-118 187-118 187c0 0 236 0 236 0c0 0-118-187-118-187"/>
<glyph unicode="&#103;" d="M141 148c0 0 60 60 60 60c0 0 0-150 0-150c0 0-142 9-142 9c0 0 45 44 45 44c-39 41-59 91-58 148c1 57 21 107 62 148c34 34 75 53 122 59c0 0 2-52 2-52c-34-6-63-21-88-45c-30-30-45-67-46-109c0-43 14-80 43-112m170 307c0 0 142-9 142-9c0 0-45-44-45-44c39-41 59-91 58-148c-1-57-21-107-62-148c-32-33-73-53-122-60c0 0-1 53-1 53c33 6 62 21 87 45c30 30 45 67 46 109c0 43-14 80-43 112c0 0-59-60-59-60c0 0-1 150-1 150"/>
<glyph unicode="&#104;" d="M141 5c-35 0-64 12-87 37c-25 24-38 52-38 85c-1 33 13 65 43 97c0 0 254 254 254 254c27 28 57 37 89 28c15-4 28-12 40-24c12-12 20-26 24-41c9-32 0-62-27-90c0 0-243-242-243-242c-14-14-29-22-45-24c-17-1-30 3-41 14c-10 9-15 21-14 38c1 17 9 33 24 47c0 0 170 171 170 171c8 9 17 9 26 0c9-9 9-17 0-25c0 0-170-170-170-170c-15-15-19-27-11-36c5-3 9-4 13-3c8 1 16 6 23 13c0 0 243 243 243 243c17 17 23 35 17 55c-5 21-18 34-39 39c-18 5-36-1-55-18c0 0-253-253-253-253c-22-26-33-51-33-74c1-22 10-42 27-59c17-17 37-25 60-26c23-1 47 10 72 32c0 0 254 253 254 253c8 8 17 8 26 0c9-8 9-16 0-25c0 0-254-254-254-254c-28-28-60-42-95-42"/>
<glyph unicode="&#106;" d="M499 65c4-6 4-12 0-18c-3-5-8-8-15-8c0 0-457 0-457 0c-6 0-11 3-14 8c-4 6-4 12-1 18c0 0 228 400 228 400c3 6 8 9 16 9c7 0 12-3 15-9c0 0 228-400 228-400m-215 25c0 0 0 51 0 51c0 0-56 0-56 0c0 0 0-51 0-51c0 0 56 0 56 0m0 89c0 0 0 154 0 154c0 0-56 0-56 0c0 0 0-154 0-154c0 0 56 0 56 0"/>
<glyph unicode="&#107;" d="M422 353c14 0 26-5 36-15c10-9 16-22 16-36c0 0 0-148 0-148c0-14-6-26-16-36c-10-10-22-16-36-16c0 0-353 0-353 0c0 0 0 72 0 72c0 0 333 0 333 0c0 0 0 108 0 108c0 0-256 0-256 0c0 0 0-57 0-57c0 0-108 92-108 92c0 0 108 93 108 93c0 0 0-57 0-57c0 0 276 0 276 0"/>
<glyph unicode="&#108;" d="M288 466c58 0 107-21 148-62c40-40 61-90 61-148c0-58-21-108-61-148c-41-41-90-62-148-62c-47 0-90 15-129 45c0 0 36 39 36 39c28-20 59-31 93-31c43 0 80 16 110 46c31 31 46 68 46 111c0 44-15 81-46 112c-30 30-67 46-110 46c-43 0-79-15-109-44c-31-30-47-66-48-108c0 0 73 0 73 0c0 0-94-105-94-105c0 0-95 105-95 105c0 0 64 0 64 0c1 57 22 105 63 145c40 39 89 59 146 59m-19-97c0 0 36 0 36 0c0 0 0-105 0-105c0 0 67-66 67-66c0 0-26-26-26-26c0 0-77 77-77 77c0 0 0 120 0 120"/>
<glyph unicode="&#109;" d="M463 419c10-9 14-19 13-31c0 0-51-332-51-332c-2-10-9-15-19-15c0 0-300 0-300 0c-10 0-16 5-20 15c-33 212-49 323-50 332c-1 12 3 22 12 31c2 2 11 9 27 22c17 12 26 20 29 22c6 5 16 8 29 8c0 0 245 0 245 0c13 0 23-3 29-8c27-20 45-35 56-44m-207-223c19 0 35 5 50 17c14 12 25 27 32 46c7 18 12 34 15 45c3 12 6 23 7 34c0 0-47 0-47 0c-13-64-32-96-57-96c-26 0-45 32-58 96c0 0-47 0-47 0c16-95 51-142 105-142m-181 188c0 0 361 0 361 0c0 0-57 59-57 59c0 0-247 0-247 0c0 0-57-59-57-59"/>
<glyph unicode="&#110;" d="M102 77c0 13 6 25 16 36c10 10 22 15 36 15c14 0 26-5 36-15c10-11 15-23 15-36c0-15-5-27-15-37c-10-9-22-14-36-14c-14 0-26 5-36 14c-10 10-16 22-16 37m256 0c0 13 6 25 16 36c10 10 22 15 36 15c14 0 26-5 36-15c10-11 15-23 15-36c0-15-5-27-15-37c-10-9-22-14-36-14c-14 0-26 5-36 14c-10 10-16 22-16 37m-164 121c-13-4-19-8-18-12c1-5 8-7 23-7c0 0 287 0 287 0c0 0 0-39 0-39c0-7-3-10-10-10c0 0-66 0-66 0c0 0-256 0-256 0c0 0-13 0-13 0c-7 0-10 3-10 10c0 0 0 39 0 39c0 0-5 24-5 24c0 0-50 232-50 232c0 0-50 0-50 0c0 0 0 41 0 41c0 7 3 10 10 10c0 0 80 0 80 0c7 0 10-3 10-10c0 0 0-44 0-44c0 0 360 0 360 0c0 0 0-140 0-140c0-8-3-12-9-13c0 0-283-81-283-81"/>
<glyph unicode="&#111;" d="M435 435c15 0 27-5 37-15c9-10 14-22 14-36c0 0 0-307 0-307c0-14-5-26-14-36c-10-10-22-15-37-15c0 0-358 0-358 0c-14 0-26 5-36 15c-10 10-15 22-15 36c0 0 0 307 0 307c0 14 5 26 15 36c10 10 22 15 36 15c0 0 23 0 23 0c0 0 0-51 0-51c0 0 82 0 82 0c0 0 0 51 0 51c0 0 149 0 149 0c0 0 0-51 0-51c0 0 82 0 82 0c0 0 0 51 0 51c0 0 22 0 22 0m0-358c0 0 0 205 0 205c0 0-358 0-358 0c0 0 0-205 0-205c0 0 358 0 358 0m-276 409c0 0 0-87 0-87c0 0-36 0-36 0c0 0 0 87 0 87c0 0 36 0 36 0m230 0c0 0 0-87 0-87c0 0-36 0-36 0c0 0 0 87 0 87c0 0 36 0 36 0"/>
<glyph unicode="&#112;" d="M290 476c59 0 108-8 146-25c38-17 56-35 53-54c-2-13-10-65-24-157c-15-92-22-140-23-144c-1-6-7-13-19-22c-12-9-30-18-55-26c-24-8-50-12-78-12c-28 0-55 4-79 12c-24 8-42 17-54 26c-12 9-18 16-19 22c0 1-1 6-2 16c28-2 56 4 83 18c28 14 52 33 72 59c9 0 17 4 24 11c7 7 10 15 10 25c0 10-3 18-10 25c-7 8-15 11-25 11c-10 0-18-3-26-11c-7-7-10-15-10-25c0-7 1-13 5-18c-17-20-36-35-59-46c-23-10-45-15-67-14c-35 4-62 14-81 30c-18 16-28 34-30 55c-2 42 24 73 80 95c-6 32-10 55-11 70c-3 19 15 37 53 54c38 17 87 25 146 25m-232-240c1-11 8-21 19-31c11-9 27-16 47-20c0 0-17 105-17 105c-34-15-50-33-49-54m232 108c28 0 54 3 80 9c26 6 45 13 58 20c13 7 19 13 19 18c0 5-6 11-19 18c-13 7-32 14-58 20c-25 6-52 9-80 9c-28 0-55-3-80-9c-26-6-45-13-58-20c-13-7-19-13-19-18c0-5 6-11 19-18c13-7 32-14 58-20c25-6 52-9 80-9"/>
<glyph unicode="&#114;" d="M233 244c0 0 0-51 0-51c0 0-233 0-233 0c3 77 4 126 5 149c1 37 19 55 51 55c0 0 82 0 82 0c6 9 12 21 19 35c7 14 11 21 12 23c5 9 9 14 12 16c3 2 9 3 19 3c0 0 113 0 113 0c9 0 15-1 19-3c3-3 7-8 11-16c6-11 16-30 31-58c0 0 82 0 82 0c32 0 50-18 51-55c0 0 5-149 5-149c0 0-232 0-232 0c0 0 0 51 0 51c0 0-47 0-47 0m-37 181c0 0-15-28-15-28c0 0 150 0 150 0c0 0-15 28-15 28c-4 9-12 13-21 13c0 0-78 0-78 0c-9 0-17-4-21-13m84-309c0 0 0 51 0 51c0 0 220 0 220 0c-2-30-4-58-5-85c-2-29-18-43-46-43c0 0-384 0-384 0c-31 0-47 14-47 43c0 0-5 85-5 85c0 0 220 0 220 0c0 0 0-51 0-51c0 0 47 0 47 0"/>
<glyph unicode="&#115;" d="M323 486c7 0 13-2 18-7c5-5 7-11 7-18c0 0 0-435 0-435c0 0-92 92-92 92c0 0-92-92-92-92c0 0 0 435 0 435c0 17 7 25 20 25c0 0 139 0 139 0"/>
<glyph unicode="&#116;" d="M371 512c7 0 13-3 18-8c5-5 8-11 8-18c0 0 0-435 0-435c0 0-77 92-77 92c0 0 0 318 0 318c0 7-3 13-8 18c-5 5-11 7-18 7c0 0-51 0-51 0c0 17 7 26 21 26c0 0 107 0 107 0m-128-77c7 0 13-2 18-7c5-6 8-12 8-18c0 0 0-410 0-410c0 0-77 92-77 92c0 0-77-92-77-92c0 0 0 410 0 410c0 17 7 25 21 25c0 0 107 0 107 0"/>
<glyph unicode="&#117;" d="M471 461c4 0 8-2 11-5c3-3 4-6 4-11c0 0 0-61 0-61c0 0-460 0-460 0c0 0 0 61 0 61c0 5 1 8 4 11c3 3 7 5 11 5c0 0 430 0 430 0m-420-374c0 0 0 271 0 271c0 0 410 0 410 0c0 0 0-271 0-271c0-10-4-19-11-26c-7-6-15-10-25-10c0 0-338 0-338 0c-10 0-18 4-25 10c-7 7-11 16-11 26m128 220c0 0 0-51 0-51c0 0 154 0 154 0c0 0 0 51 0 51c0 0-154 0-154 0"/>
<glyph unicode="&#118;" d="M200 199c0 0 0-35 0-35c0 0-103 41-103 41c0 0 0 35 0 35c0 0 103-41 103-41m0 106c0 0 0-35 0-35c0 0-103 41-103 41c0 0 0 35 0 35c0 0 103-41 103-41m275 177c8-4 11-11 11-21c0 0 0-328 0-328c0-11-5-19-16-23c0 0-204-82-204-82c-2-1-4-1-5-1c-1 0-1-1-2-1c-1 0-2 0-3 0c-1 0-2 0-3 0c-1 0-1 1-2 1c0 0-5 1-5 1c0 0-204 82-204 82c-11 4-16 12-16 23c0 0 0 328 0 328c0 10 3 17 11 21c7 6 15 7 23 3c0 0 196-78 196-78c0 0 196 78 196 78c8 4 16 3 23-3m-245-403c0 0 0 287 0 287c0 0-163 65-163 65c0 0 0-287 0-287c0 0 163-65 163-65m215 65c0 0 0 287 0 287c0 0-163-65-163-65c0 0 0-287 0-287c0 0 163 65 163 65m-30 96c0 0 0-35 0-35c0 0-103-41-103-41c0 0 0 35 0 35c0 0 103 41 103 41m0 106c0 0 0-35 0-35c0 0-103-41-103-41c0 0 0 35 0 35c0 0 103 41 103 41"/>
<glyph unicode="&#119;" d="M256 502c68 0 126-24 174-72c48-48 72-106 72-174c0-68-24-125-72-174c-48-48-106-72-174-72c-68 0-125 24-174 72c-48 49-72 106-72 174c0 68 24 126 72 174c49 48 106 72 174 72m132-113l0 0m-318-133c0-45 14-84 42-118c0 0 263 263 263 263c-34 28-74 42-119 42c-52 0-96-18-132-54c-36-37-54-81-54-133m54-132l0 0m132-54c52 0 96 18 133 54c36 37 54 81 54 132c0 44-14 84-42 119c0 0-263-263-263-263c34-28 73-42 118-42"/>
<glyph unicode="&#120;" d="M426 381c6-3 9-8 9-14c0 0 0-288 0-288c0-5-2-9-6-13c-4-4-9-6-14-6c-16 0-24 7-24 19c0 0 0 267 0 267c0 4-2 7-6 9c0 0-207 111-207 111c-11 3-22 2-35-5c-15-7-24-15-28-23c0 0 209-116 209-116c6-3 9-8 9-15c0 0 0-281 0-281c0-8-3-13-9-15c-2-1-5-2-9-2c-4 0-8 1-10 2c-3 2-37 24-103 65c-66 42-103 64-109 67c-9 7-13 12-13 18c0 0-3 268-3 268c0 10 2 18 7 27c10 15 27 29 52 39c25 11 45 12 60 5c0 0 230-119 230-119"/>
<glyph unicode="&#121;" d="M375 295c5-12 12-21 20-27c9-6 16-10 23-11c8-1 15-5 23-12c8-6 14-16 18-28c7-21-5-49-38-82c-33-34-76-61-129-81c-56-20-107-27-152-23c-45 5-72 17-79 39c-7 18-5 37 6 56c11 20 14 39 9 57c-19 66-27 117-24 154c3 37 22 70 58 98c9 8 14 16 15 26c1 10 6 17 14 20c9 3 16 1 24-6c7-7 17-10 29-9c45 1 78-11 101-34c23-23 50-69 82-137m-95-207c30 11 57 25 81 44c24 18 41 33 51 46c10 13 14 22 13 26c-3 7-11 13-25 17c-14 3-35 4-63 0c-29-3-61-11-96-24c-35-13-65-28-89-45c-24-17-40-31-48-43c-8-12-11-21-9-27c2-4 10-8 26-11c16-4 39-4 69-2c30 2 60 8 90 19m-32 89c3 1 6 2 11 4c4 1 7 3 8 3c0 0 1-1 1-1c5-13 2-28-8-42c-11-15-26-26-46-32c-33-13-59-10-78 7c27 23 64 43 112 61"/>
<glyph unicode="&#66;" d="M256 307c22 0 40-7 55-22c14-15 22-33 22-55c0-21-8-39-23-54c-15-15-33-22-54-22c-21 0-39 7-54 22c-15 15-23 33-23 54c0 22 8 40 23 55c15 15 33 22 54 22m205 77c14 0 26-5 36-15c10-10 15-22 15-36c0 0 0-231 0-231c0-13-5-25-15-35c-10-11-22-16-36-16c0 0-410 0-410 0c-13 0-25 5-36 16c-10 10-15 22-15 35c0 0 0 231 0 231c0 14 5 26 15 36c11 10 23 15 36 15c0 0 62 0 62 0c9 0 16 5 20 15c0 0 15 47 15 47c4 10 11 15 21 15c0 0 174 0 174 0c10 0 17-5 21-15c0 0 15-47 15-47c4-10 11-15 20-15c0 0 62 0 62 0m-205-282c36 0 66 13 91 38c25 25 37 55 37 90c0 36-12 66-37 91c-25 25-55 37-91 37c-35 0-66-12-91-37c-25-25-37-55-37-91c0-35 12-65 37-90c25-25 56-38 91-38m187 195c5 0 9 2 13 6c3 3 5 8 5 12c0 5-2 9-5 13c-4 3-8 5-13 5c-12 0-18-6-18-18c0-5 2-10 6-13c3-3 8-5 12-5"/>
<glyph unicode="&#67;" d="M367 176c6-6 9-13 9-22c0-8-3-16-9-22c-6-5-13-8-22-8c-8 0-16 3-22 8c0 0-68 78-68 78c0 0-67-78-67-78c-6-5-14-8-22-8c-9 0-16 3-22 8c-6 6-8 14-8 22c0 9 2 16 8 22c0 0 71 80 71 80c0 0-71 81-71 81c-6 6-8 13-8 22c0 8 2 16 8 22c6 5 13 8 22 8c8 0 16-3 22-8c0 0 67-78 67-78c0 0 68 78 68 78c6 5 14 8 22 8c9 0 16-3 22-8c6-6 9-14 9-22c0-9-3-16-9-22c0 0-71-81-71-81c0 0 71-80 71-80"/>
<glyph unicode="&#68;" d="M256 471c59 0 110-21 152-63c42-42 63-93 63-152c0-59-21-110-63-152c-42-42-93-63-152-63c-59 0-110 21-152 63c-42 42-63 93-63 152c0 59 21 110 63 152c42 42 93 63 152 63m44-215c0 0 79 79 79 79c0 0-44 44-44 44c0 0-79-78-79-78c0 0-78 78-78 78c0 0-45-44-45-44c0 0 79-79 79-79c0 0-79-78-79-78c0 0 45-44 45-44c0 0 78 78 78 78c0 0 79-78 79-78c0 0 44 44 44 44c0 0-79 78-79 78"/>
<glyph unicode="&#69;" d="M410 461c14 0 26-5 36-15c10-10 15-22 15-36c0 0 0-308 0-308c0-13-5-25-15-35c-10-11-22-16-36-16c0 0-308 0-308 0c-13 0-25 5-35 16c-11 10-16 22-16 35c0 0 0 308 0 308c0 14 5 26 16 36c10 10 22 15 35 15c0 0 308 0 308 0m-75-327c0 0 44 44 44 44c0 0-79 78-79 78c0 0 79 79 79 79c0 0-44 44-44 44c0 0-79-78-79-78c0 0-78 78-78 78c0 0-45-44-45-44c0 0 79-79 79-79c0 0-79-78-79-78c0 0 45-44 45-44c0 0 78 78 78 78c0 0 79-78 79-78"/>
<glyph unicode="&#78;" d="M389 330c34 0 63-12 87-35c24-23 36-52 36-85c0-34-12-62-36-85c-24-23-53-35-87-35c0 0-296 0-296 0c-25 0-47 9-65 27c-19 17-28 39-28 63c0 25 9 47 27 65c18 17 40 26 66 26c1 0 3 0 5 0c3 0 5-1 5-1c0 4-1 11-1 20c0 37 14 68 40 94c27 26 59 39 97 39c30 0 58-9 82-27c23-17 39-40 48-68c9 1 16 2 20 2"/>
<glyph unicode="&#79;" d="M256 492c65 0 120-24 166-70c46-46 70-101 70-166c0-65-24-120-70-166c-46-46-101-70-166-70c-65 0-120 24-166 70c-46 46-70 101-70 166c0 65 24 120 70 166c46 46 101 70 166 70m0-420c51 0 95 18 131 54c35 36 53 79 53 130c0 51-18 95-53 131c-36 35-80 53-131 53c-51 0-94-18-130-53c-36-36-54-80-54-131c0-51 18-94 54-130c36-36 79-54 130-54m18 317c0 0 0-125 0-125c0 0 77-77 77-77c0 0-25-25-25-25c0 0-87 87-87 87c0 0 0 140 0 140c0 0 35 0 35 0"/>
<glyph unicode="&#80;" d="M399 461c10 0 18-4 25-11c8-7 11-15 11-25c0 0 0-389 0-389c0-10-3-19-11-26c-7-7-15-10-25-10c0 0-286 0-286 0c-10 0-18 3-25 10c-8 7-11 16-11 26c0 0 0 389 0 389c0 10 3 18 11 25c7 7 15 11 25 11c0 0 30-77 30-77c0 0 226 0 226 0c0 0 30 77 30 77m-51-51c0 0-184 0-184 0c0 0-23 51-23 51c0 0 56 0 56 0c0 0 18 51 18 51c0 0 82 0 82 0c0 0 18-51 18-51c0 0 57 0 57 0c0 0-24-51-24-51"/>
<glyph unicode="&#81;" d="M212 77c-11 0-21 5-28 14c0 0-92 121-92 121c-6 8-8 17-6 27c1 9 5 17 13 23c7 6 16 9 26 7c10-1 18-6 24-14c0 0 60-79 60-79c0 0 152 243 152 243c5 8 13 13 22 15c9 2 18 1 27-4c8-5 13-13 15-22c3-9 1-18-4-27c0 0-179-287-179-287c-7-11-16-16-28-16c0 0-2-1-2-1"/>
<glyph unicode="&#82;" d="M148 200c0 0 180 0 180 0c0 0 1 0 3 1c0 0 2 0 2 0c0 0 0-47 0-47c0-14-5-26-15-36c-10-10-22-16-36-16c0 0-128 0-128 0c0 0-77-76-77-76c0 0 0 76 0 76c0 0-26 0-26 0c-13 0-25 6-36 16c-10 10-15 22-15 36c0 0 0 153 0 153c0 15 5 27 15 37c11 9 23 14 36 14c0 0 97 0 97 0c0 0 0-158 0-158m313 286c14 0 26-5 36-14c10-10 15-22 15-37c0 0 0-153 0-153c0-14-5-26-15-36c-10-10-22-16-36-16c0 0-26 0-26 0c0 0 0-76 0-76c0 0-77 76-77 76c0 0-179 0-179 0c0 0 0 205 0 205c0 15 5 27 16 37c10 9 22 14 35 14c0 0 231 0 231 0"/>
<glyph unicode="&#83;" d="M229 471c0 0 0-188 0-188c0 0-188 0-188 0c6 49 27 92 62 127c35 35 77 56 126 61m55 0c53-7 97-31 133-71c36-41 54-88 54-143c0-59-21-110-63-153c-42-42-93-63-153-63c-55 0-102 18-142 54c-41 36-65 80-72 134c0 0 217 0 217 0c7 0 13 3 18 8c5 4 8 10 8 18c0 0 0 216 0 216"/>
<glyph unicode="&#84;" d="M17 222c-14 4-20 13-16 29c3 14 12 20 27 16c0 0 50-12 50-12c0 0-26-41-26-41c0 0-35 8-35 8m455-6c4 4 10 6 16 6c7-1 12-3 16-8c11-11 11-22-1-33c0 0-128-115-128-115c-5-4-10-6-16-6c-5 0-9 2-14 5c0 0-146 112-146 112c0 0-28 8-28 8c0 0 26 40 26 40c0 0 18-4 18-4c4-1 7-2 8-4c0 0 135-104 135-104c0 0 114 103 114 103m-251 112c0 0-178-280-178-280c-4-8-11-12-20-12c-4 0-8 2-12 5c-5 3-9 8-10 14c-1 7 0 12 3 17c0 0 191 300 191 300c3 6 7 9 14 11c6 2 12 1 19-3c0 0 125-80 125-80c0 0 115 166 115 166c4 6 9 9 15 10c6 1 12-1 17-5c13-8 15-18 6-31c0 0-128-185-128-185c-9-12-19-14-32-6c0 0-125 79-125 79"/>
<glyph unicode="&#85;" d="M435 486c8 0 14-2 19-7c4-5 7-11 7-18c0 0 0-435 0-435c0 0-103 0-103 0c0 0 0 435 0 435c0 17 7 25 21 25c0 0 56 0 56 0m-153-153c7 0 13-3 18-8c5-5 7-11 7-18c0 0 0-281 0-281c0 0-102 0-102 0c0 0 0 281 0 281c0 17 7 26 20 26c0 0 57 0 57 0m-154-154c8 0 14-2 18-7c5-6 8-12 8-18c0 0 0-128 0-128c0 0-103 0-103 0c0 0 0 128 0 128c0 17 7 25 21 25c0 0 56 0 56 0"/>
<glyph unicode="&#86;" d="M499 452c5 7 8 6 8-2c0 0 0-394 0-394c0 0-494 0-494 0c-4 0-6 2-7 4c-1 2-1 5 2 9c0 0 118 147 118 147c7 8 14 8 20 1c0 0 38-34 38-34c4-2 7-4 11-3c4 0 7 2 9 5c0 0 81 122 81 122c5 9 12 10 19 2c0 0 57-53 57-53c7-7 14-6 20 2c0 0 118 194 118 194"/>
<glyph unicode="&#87;" d="M256 492c65 0 120-24 166-70c46-46 70-101 70-166c0-65-24-120-70-166c-46-46-101-70-166-70c-65 0-120 24-166 70c-46 46-70 101-70 166c0 65 24 120 70 166c46 46 101 70 166 70m0-313c21 0 39 8 54 23c15 15 23 33 23 54c0 22-8 40-22 55c-15 14-33 22-55 22c-21 0-39-8-54-23c-15-15-23-33-23-54c0-21 8-39 23-54c15-15 33-23 54-23"/>
<glyph unicode="&#88;" d="M288 454c58 0 107-21 148-62c40-41 61-90 61-148c0-58-21-108-61-149c-41-41-90-61-148-61c-49 0-92 15-129 45c0 0 36 38 36 38c28-21 59-31 93-31c43 0 80 15 110 46c31 31 46 68 46 112c0 43-15 81-46 111c-30 31-67 46-110 46c-43 0-79-14-110-44c-31-30-46-66-47-108c0 0 73 0 73 0c0 0-94-105-94-105c0 0-95 105-95 105c0 0 64 0 64 0c1 56 21 105 62 145c41 40 90 60 147 60"/>
<glyph unicode="&#48;" d="M389 330c34 0 63-12 87-35c24-23 36-52 36-85c0-34-12-62-36-85c-24-23-53-35-87-35c0 0-296 0-296 0c-25 0-47 9-65 27c-19 17-28 39-28 63c0 25 9 47 27 65c18 17 40 26 66 26c1 0 3 0 5 0c3 0 5-1 5-1c0 4-1 11-1 20c0 37 14 68 40 94c27 26 59 39 97 39c30 0 58-9 82-27c23-17 39-40 48-68c9 1 16 2 20 2m-98-111c5 6 7 11 7 15c0 7-5 13-15 17c0 0-2 0-2 0c-9 5-16 7-20 8c0 0 26 59 26 59c2 0 3 4 3 11c0 4-2 8-4 9c-6 3-12 2-18-4c0-1-6-6-15-17c-10-10-20-21-31-33c-12-13-19-22-23-27c-4-6-6-11-6-15c0-8 5-13 15-16c0 0 2-1 2-1c3-1 9-4 19-8c0 0-26-58-26-58c0 0-1-4-1-4c-1-3-1-5-1-8c0-3 1-6 4-9c6-3 12-1 17 5c34 34 57 60 69 76"/>
<glyph unicode="&#49;" d="M195 402c5-4 8-10 8-16c0-6-3-11-8-15c0 0-126-115-126-115c0 0 126-116 126-116c5-4 8-9 8-15c0-6-3-12-8-16c-11-11-21-11-31 0c0 0-164 147-164 147c0 0 164 146 164 146c10 11 20 11 31 0m154 0c0 0 163-146 163-146c0 0-163-147-163-147c-11-11-21-11-32 0c-10 10-10 21 0 31c0 0 127 116 127 116c0 0-127 115-127 115c-10 10-10 21 0 31c11 11 21 11 32 0"/>
<glyph unicode="&#50;" d="M430 256c0-25 14-45 41-62c-4-14-10-28-17-42c-24 6-47-2-70-23c-18-20-24-43-17-70c-14-6-28-13-43-18c-16 28-39 42-68 42c-29 0-52-14-68-42c-15 5-29 12-43 18c7 28 1 51-17 70c-18 18-42 24-70 17c-4 9-10 23-17 42c28 18 42 41 42 68c0 25-14 46-42 63c7 20 13 34 17 42c26-6 49 2 70 23c18 19 24 42 17 70c15 7 29 13 43 17c16-27 39-41 68-41c29 0 52 14 68 41c14-4 28-10 43-17c-7-27-1-50 17-70c23-21 46-29 70-23c7-14 13-28 17-42c-27-17-41-38-41-63m-174-93c26 0 48 9 66 27c18 18 27 40 27 66c0 26-9 48-27 67c-18 18-40 27-66 27c-26 0-48-9-66-27c-18-19-27-41-27-67c0-26 9-48 27-66c18-18 40-27 66-27"/>
<glyph unicode="&#51;" d="M410 435c14 0 26-5 36-15c10-10 15-22 15-36c0 0 0-179 0-179c0-14-5-26-15-36c-10-10-22-15-36-15c0 0-103 0-103 0c0 0 0-77 0-77c0 0-102 77-102 77c0 0-103 0-103 0c-13 0-25 5-35 15c-11 10-16 22-16 36c0 0 0 179 0 179c0 14 5 26 16 36c10 10 22 15 35 15c0 0 308 0 308 0"/>
<glyph unicode="&#52;" d="M253 502c68 0 126-23 174-70c48-47 73-104 75-172c0-68-23-127-70-175c-47-48-105-73-173-75c-68 0-126 23-175 70c-48 48-73 105-74 173c-1 68 22 127 69 175c48 48 106 73 174 74m6-440c53 1 99 21 136 59c38 38 56 84 56 138c-1 54-21 100-59 137c-39 37-85 55-138 55c-54-1-100-21-137-59c-37-38-55-84-55-138c1-54 21-100 59-137c38-37 84-55 138-55m-120 79c2 9 4 20 6 34c3 14 10 36 21 66c12 30 25 52 40 67c15 15 36 28 64 39c27 11 52 18 72 22c0 0 31 5 31 5c-2-9-4-20-6-34c-3-14-10-36-21-66c-12-30-25-52-40-67c-14-14-35-27-63-38c-28-11-53-18-73-22c0 0-31-6-31-6m92 142c-7-7-11-15-11-25c0-10 4-18 11-26c7-7 16-11 26-11c9 0 18 4 25 11c17 18 32 50 45 96c-47-13-79-28-96-45"/>
<glyph unicode="&#53;" d="M461 435c14 0 26-5 36-15c10-10 15-22 15-36c0 0 0-256 0-256c0-14-5-26-15-36c-10-10-22-15-36-15c0 0-410 0-410 0c-13 0-25 5-36 15c-10 10-15 22-15 36c0 0 0 256 0 256c0 14 5 26 15 36c11 10 23 15 36 15c0 0 410 0 410 0m0-307c0 0 0 154 0 154c0 0-410 0-410 0c0 0 0-154 0-154c0 0 410 0 410 0m0 230c0 0 0 26 0 26c0 0-410 0-410 0c0 0 0-26 0-26c0 0 410 0 410 0m-359-131c0 0 16 0 16 0c0 0 0-15 0-15c0 0-16 0-16 0c0 0 0 15 0 15m93-30c0 0 15 0 15 0c0 0 0 15 0 15c0 0 15 0 15 0c0 0 0 15 0 15c0 0 31 0 31 0c0 0 0-15 0-15c0 0-15 0-15 0c0 0 0-15 0-15c0 0-16 0-16 0c0 0 0-16 0-16c0 0-30 0-30 0c0 0 0 16 0 16m61-16c0 0-15 0-15 0c0 0 0 16 0 16c0 0 15 0 15 0c0 0 0-16 0-16m-77 0c0 0-31 0-31 0c0 0 0 16 0 16c0 0 31 0 31 0c0 0 0-16 0-16m16 31c0 0 0-15 0-15c0 0-16 0-16 0c0 0 0 30 0 30c0 0 31 0 31 0c0 0 0-15 0-15c0 0-15 0-15 0m-62-15c0 0 0-16 0-16c0 0-31 0-31 0c0 0 0 16 0 16c0 0 16 0 16 0c0 0 0 15 0 15c0 0 15 0 15 0c0 0 0 15 0 15c0 0 31 0 31 0c0 0 0-15 0-15c0 0-16 0-16 0c0 0 0-15 0-15c0 0-15 0-15 0"/>
<glyph unicode="&#54;" d="M256 466c52 0 94-7 127-21c34-14 49-29 47-45c0 0-37-304-37-304c0-5-6-11-17-18c-11-8-28-15-50-22c-22-7-45-10-70-10c-25 0-48 3-70 10c-21 7-38 14-49 22c-12 7-18 13-18 18c0 0-37 304-37 304c-1 10 5 20 18 30c14 9 35 18 62 25c28 7 59 11 94 11m0-111c25 0 48 3 70 8c22 5 39 11 50 17c12 6 17 11 17 15c0 4-5 9-17 15c-11 6-28 11-50 16c-22 6-45 8-70 8c-25 0-48-2-70-8c-22-5-39-10-50-16c-12-6-17-11-17-15c0-4 5-9 17-15c11-6 28-12 50-17c22-5 45-8 70-8"/>
<glyph unicode="&#55;" d="M224 466c58 0 107-20 147-59c41-40 62-88 63-145c0 0 63 0 63 0c0 0-95-105-95-105c0 0-94 105-94 105c0 0 74 0 74 0c-1 42-17 78-48 108c-31 29-67 44-110 44c-43 0-80-16-110-46c-31-31-46-68-46-112c0-43 15-80 46-111c30-30 67-46 110-46c36 0 67 11 93 31c0 0 36-39 36-39c-37-30-80-45-129-45c-57 0-106 21-147 62c-41 40-62 90-62 148c0 58 21 108 62 148c41 41 90 62 147 62"/>
<glyph unicode="&#56;" d="M428 183c5 7 7 7 7-1c0 0 0-51 0-51c0-25-18-48-53-69c-36-21-78-31-126-31c-48 0-90 10-125 31c-36 21-54 44-54 69c0 0 0 51 0 51c0 3 0 5 2 5c1 1 3 0 5-4c11-17 32-32 64-44c32-11 68-17 108-17c40 0 76 6 108 17c32 12 53 27 64 44m1 130c3 6 5 6 6 0c0 0 0-59 0-59c0-23-17-43-52-58c-35-16-77-24-127-24c-49 0-91 8-126 24c-36 15-53 35-53 58c0 0 0 59 0 59c0 7 2 7 7 0c10-15 31-28 63-38c33-10 69-15 109-15c40 0 76 5 109 15c32 10 53 23 64 38m-173 168c49 0 91-6 126-20c36-13 53-29 53-47c0 0 0-33 0-33c0-20-17-37-53-51c-35-14-77-21-126-21c-49 0-91 7-126 21c-36 14-53 31-53 51c0 0 0 33 0 33c0 18 17 34 53 47c35 14 77 20 126 20"/>
<glyph unicode="&#33;" d="M470 470c3-3 5-5 6-8c1-3 0-7-1-11c-2-5-4-10-5-14c-2-4-5-11-10-20c-5-9-9-17-13-25c-18-38-43-87-75-146c-32-60-58-109-80-150c0 0-34-60-34-60c0 0-28 194-28 194c0 0-194 29-194 29c151 84 269 147 356 188c7 4 15 8 25 13c9 5 16 9 20 11c3 1 8 3 13 4c4 1 8 2 11 1c3-1 6-3 9-6m-47-49c0 0-156-143-156-143c0 0 15-120 15-120c0 0 141 263 141 263"/>
<glyph unicode="&#36;" d="M344 317c8 9 16 9 25 0c9-7 9-15 0-24c0 0-101-98-101-98c-7-8-15-8-24 0c0 0-101 98-101 98c-9 9-9 17 0 24c9 9 17 9 26 0c0 0 87-79 87-79c0 0 88 79 88 79"/>
<glyph unicode="&#37;" d="M67 369c0 0 189-183 189-183c0 0 190 183 190 183c8 9 16 9 25 0c9-8 9-16 0-25c0 0-203-201-203-201c-7-7-15-7-24 0c0 0-203 201-203 201c-9 9-9 17 0 25c8 8 17 8 26 0"/>
<glyph unicode="&#38;" d="M396 293c0 0-120-115-120-115c-6-6-12-9-20-9c-8 0-14 3-20 9c0 0-120 115-120 115c-6 5-8 12-8 21c0 8 2 15 8 21c13 13 26 13 40 0c0 0 100-96 100-96c0 0 100 96 100 96c14 13 27 13 40 0c6-6 8-13 8-21c0-9-2-16-8-21"/>
<glyph unicode="&#39;" d="M374 358c0 0-118-204-118-204c0 0-118 204-118 204c0 0 236 0 236 0"/>
<glyph unicode="&#40;" d="M256 492c65 0 120-24 166-70c46-46 70-101 70-166c0-65-24-120-70-166c-46-46-101-70-166-70c-65 0-120 24-166 70c-46 46-70 101-70 166c0 65 24 120 70 166c46 46 101 70 166 70m0-420c51 0 94 18 130 54c36 36 54 79 54 130c0 51-18 95-54 131c-36 35-79 53-130 53c-51 0-94-18-130-53c-36-36-54-80-54-131c0-51 18-94 54-130c36-36 79-54 130-54m46 283c0 0 0-105 0-105c0 0 57 0 57 0c0 0-103-97-103-97c0 0-103 97-103 97c0 0 57 0 57 0c0 0 0 105 0 105c0 0 92 0 92 0"/>
<glyph unicode="&#41;" d="M451 264c0 0-195-194-195-194c0 0-195 194-195 194c0 0 99 0 99 0c0 0 0 179 0 179c0 0 192 0 192 0c0 0 0-179 0-179c0 0 99 0 99 0"/>
<glyph unicode="&#45;" d="M497 323c13-4 18-12 15-24c0 0-77-285-77-285c-1-5-4-9-9-11c-5-3-10-3-15-2c0 0-208 56-208 56c-6 2-10 5-13 10c-2 4-3 9-2 14c0 0 13 47 13 47c0 0-92-25-92-25c-14-3-23 1-26 14c0 0-82 308-82 308c-3 12 1 20 14 25c0 0 233 62 233 62c5 1 10 1 15-2c5-2 8-6 9-11c0 0 34-125 34-125c0 0 191-51 191-51m-455 97c0 0 74-278 74-278c0 0 200 55 200 55c0 0-73 276-73 276c0 0-201-53-201-53m359-380c0 0 68 252 68 252c0 0-153 42-153 42c0 0 39-145 39-145c4-11-1-19-14-23c0 0-100-27-100-27c0 0-14-52-14-52c0 0 174-47 174-47"/>
<glyph unicode="&#46;" d="M384 486c14 0 26-5 36-14c10-10 15-22 15-37c0 0 0-358 0-358c0-14-5-26-15-36c-10-10-22-15-36-15c0 0-256 0-256 0c-14 0-26 5-36 15c-10 10-15 22-15 36c0 0 0 358 0 358c0 15 5 27 15 37c10 9 22 14 36 14c0 0 256 0 256 0m-236-106c0 0 0-45 0-45c0 0 216 0 216 0c0 0 0 45 0 45c0 0-216 0-216 0m216-246c0 0 0 45 0 45c0 0-216 0-216 0c0 0 0-45 0-45c0 0 216 0 216 0m0 100c0 0 0 47 0 47c0 0-214 0-214 0c0 0 0-47 0-47c0 0 214 0 214 0"/>
<glyph unicode="&#47;" d="M185 234c0 0 0 47 0 47c0 0 144 0 144 0c0 0 0-47 0-47c0 0-144 0-144 0m199 252c14 0 26-5 36-14c10-10 15-22 15-37c0 0 0-358 0-358c0-14-5-26-15-36c-10-10-22-15-36-15c0 0-256 0-256 0c-14 0-26 5-36 15c-10 10-15 22-15 36c0 0 0 358 0 358c0 15 5 27 15 37c10 9 22 14 36 14c0 0 256 0 256 0m0-409c0 0 0 358 0 358c0 0-256 0-256 0c0 0 0-358 0-358c0 0 256 0 256 0m-56 303c0 0 0-45 0-45c0 0-144 0-144 0c0 0 0 45 0 45c0 0 144 0 144 0m0-201c0 0 0-45 0-45c0 0-144 0-144 0c0 0 0 45 0 45c0 0 144 0 144 0"/>
<glyph unicode="&#59;" d="M384 128c0 0-128-123-128-123c0 0-128 123-128 123c0 0 83 0 83 0c0 0 0 379 0 379c0 0 90 0 90 0c0 0 0-379 0-379c0 0 83 0 83 0"/>
<glyph unicode="&#60;" d="M495 178c7-3 11-9 14-16c3-8 4-15 2-21c0 0-14-79-14-79c-2-6-6-12-12-16c-6-5-13-7-20-7c0 0-418 0-418 0c-8 0-14 2-21 7c-6 4-9 10-11 16c0 0-14 79-14 79c-4 17 2 29 16 37c0 0 81 55 81 55c0 0 50 0 50 0c0 0-87-66-87-66c0 0 91 0 91 0c3 0 5-1 7-4c0 0 20-57 20-57c0 0 154 0 154 0c0 0 20 57 20 57c3 3 5 4 6 4c0 0 91 0 91 0c0 0-87 66-87 66c0 0 51 0 51 0c0 0 81-55 81-55m-106 165c0 0-133-125-133-125c0 0-133 125-133 125c0 0 85 0 85 0c0 0 0 131 0 131c0 0 97 0 97 0c0 0 0-131 0-131c0 0 84 0 84 0"/>
<glyph unicode="&#63;" d="M478 232c9-15 11-31 7-49c0 0-17-94-17-94c-1-7-4-13-10-18c-6-5-13-8-20-8c0 0-365 0-365 0c-7 0-13 3-19 8c-6 5-10 11-10 18c0 0-18 94-18 94c-3 18 0 34 7 49c0 0 81 192 81 192c8 16 20 23 37 23c0 0 209 0 209 0c17 0 30-7 38-23c0 0 80-192 80-192m-35-67c1 7-1 14-5 19c-4 6-10 9-18 9c0 0-329 0-329 0c-8 0-14-3-18-9c-4-5-6-12-5-19c0 0 7-38 7-38c1-8 4-14 10-19c6-5 13-8 20-8c0 0 302 0 302 0c8 0 14 3 20 8c6 5 9 11 10 19c0 0 6 38 6 38"/>
<glyph unicode="&#91;" d="M261 498c5-41 15-78 31-112c16-35 31-62 47-82c16-20 30-43 42-70c12-26 18-53 18-81c0-39-14-73-42-101c-28-28-62-42-101-42c-39 0-73 14-101 42c-28 28-42 62-42 101c0 28 6 55 18 81c12 27 26 50 42 70c16 20 31 47 47 82c16 34 26 71 31 112c1 2 2 4 6 4c3 0 4-2 4-4m-21-201c0 1 0 4-1 7c-2 2-5 3-8 3c-2 0-4-1-6-3c0 0-20-30-20-30c-11-15-19-27-25-35c-5-9-11-21-17-39c-6-17-9-34-9-52c0-8 3-15 8-21c6-5 13-8 21-8c20 0 30 11 30 35c0 32 7 74 21 126c1 2 2 4 3 8c1 4 2 7 3 9"/>
<glyph unicode="&#93;" d="M461 435c14 0 26-5 36-15c10-10 15-22 15-36c0 0 0-256 0-256c0-13-5-25-15-36c-10-10-22-15-36-15c0 0-244 0-244 0c-13 0-25 5-36 14c0 0-174 152-174 152c-9 9-9 18 0 27c0 0 174 152 174 152c10 8 22 13 36 13c0 0 244 0 244 0m-72-281c0 0 37 38 37 38c0 0-65 64-65 64c0 0 65 65 65 65c0 0-37 37-37 37c0 0-65-64-65-64c0 0-65 64-65 64c0 0-37-37-37-37c0 0 65-65 65-65c0 0-65-64-65-64c0 0 37-38 37-38c0 0 65 65 65 65c0 0 65-65 65-65"/>
<glyph unicode="&#95;" d="M384 108c0 0 0 28 0 28c0 0 51 42 51 42c0 0 0-96 0-96c0-7-2-13-7-18c-6-5-12-8-18-8c0 0-384 0-384 0c-7 0-13 3-18 8c-5 5-8 11-8 18c0 0 0 282 0 282c0 7 2 13 7 18c5 5 11 7 19 7c0 0 147 0 147 0c-11-8-21-16-30-25c-9-9-16-15-20-20c0 0-5-6-5-6c0 0-67 0-67 0c0 0 0-230 0-230c0 0 333 0 333 0m-42 178c-57 0-98-7-124-21c-26-14-53-45-82-93c0 3 0 7 1 11c0 5 2 15 4 29c3 14 7 28 12 40c4 13 12 27 22 43c10 16 22 29 36 40c14 12 32 21 55 29c23 8 48 12 76 12c0 0 0 80 0 80c0 0 170-128 170-128c0 0-170-133-170-133c0 0 0 91 0 91"/>
<glyph unicode="&#96;" d="M256 399c31 0 62-4 91-12c29-9 53-20 72-32c19-13 36-26 51-40c14-13 25-25 32-36c7-11 10-18 10-23c0-5-3-12-10-23c-7-10-18-22-32-36c-15-14-32-27-51-40c-19-12-43-23-72-32c-29-8-60-12-91-12c-31 0-62 4-91 12c-29 9-53 20-72 32c-19 13-36 26-51 40c-14 14-25 26-32 36c-7 11-10 18-10 23c0 5 3 12 10 23c7 11 18 23 32 36c15 14 32 27 51 40c19 12 43 23 72 32c29 8 60 12 91 12m0-253c31 0 58 11 80 33c23 21 34 47 34 77c0 31-11 57-34 78c-22 22-49 33-80 33c-31 0-58-11-80-33c-23-21-34-47-34-78c0-30 11-56 34-77c22-22 49-33 80-33m0 110c3-3 9-3 19-1c10 2 18 4 26 6c7 1 11 0 12-5c0-15-5-28-17-38c-11-11-24-16-40-16c-16 0-29 5-40 16c-11 10-16 23-16 38c0 16 5 29 16 39c11 11 24 16 40 16c5 0 6-4 5-11c-1-8-3-16-6-25c-3-8-2-14 1-19"/>
<glyph unicode="&#125;" d="M420 410c0-28-13-46-38-57c-2-20-7-37-14-51c-8-15-18-27-32-36c-13-9-25-15-34-19c-10-4-23-9-39-14c-14-4-25-8-32-11c-7-3-15-7-24-12c-9-6-16-12-20-21c-4-8-6-18-8-30c24-11 36-29 36-57c0-17-6-31-18-43c-12-12-26-18-43-18c-17 0-32 6-44 18c-12 12-18 26-18 43c0 27 12 46 37 58c0 0 0 193 0 193c-25 12-37 31-37 57c0 17 6 31 18 43c12 12 27 18 44 18c17 0 31-6 43-18c12-12 18-26 18-43c0-26-12-45-37-57c0 0 0-104 0-104c14 10 37 20 71 31c20 6 34 11 43 14c9 4 17 11 26 21c8 11 13 24 15 39c-24 11-36 30-36 56c0 17 6 31 18 43c12 12 26 18 43 18c17 0 32-6 44-18c12-12 18-26 18-43m-301 0c0-10 3-18 10-25c7-7 15-10 25-10c9 0 18 3 25 10c7 7 10 15 10 25c0 10-3 18-10 25c-7 7-16 10-25 10c-10 0-18-3-25-10c-7-7-10-15-10-25m35-342c9 0 18 3 25 10c7 7 10 15 10 24c0 11-3 19-10 26c-7 7-16 10-25 10c-10 0-18-3-25-10c-7-7-10-15-10-26c0-9 3-17 10-24c7-7 15-10 25-10m204 307c10 0 18 3 25 10c8 7 11 15 11 25c0 10-3 18-11 25c-7 7-15 10-25 10c-9 0-17-3-24-10c-7-7-10-15-10-25c0-10 3-18 10-25c7-7 15-10 24-10"/>
<glyph unicode="&#126;" d="M388 461c0 0 73-80 73-80c0 0 0-279 0-279c0-13-5-25-15-35c-10-11-22-16-36-16c0 0-308 0-308 0c-13 0-25 5-35 16c-11 10-16 22-16 35c0 0 0 308 0 308c0 14 5 26 16 36c10 10 22 15 35 15c0 0 286 0 286 0m-30-154c0 0 0 128 0 128c0 0-204 0-204 0c0 0 0-128 0-128c0-7 2-13 7-18c5-5 11-7 18-7c0 0 154 0 154 0c7 0 13 2 18 7c5 5 7 11 7 18m-25 103c0 0 0-103 0-103c0 0-51 0-51 0c0 0 0 103 0 103c0 0 51 0 51 0"/>
<glyph unicode="&#92;" d="M137 16c0 0 63 204 63 204c0 0-92 0-92 0c0 0-57-51-57-51c0 0-51 0-51 0c0 0 41 87 41 87c0 0-41 87-41 87c0 0 51 0 51 0c0 0 57-51 57-51c0 0 92 0 92 0c0 0-63 204-63 204c0 0 51 0 51 0c0 0 114-204 114-204c0 0 132 0 132 0c0 0 8 0 8 0c0 0 6-1 18-2c13-2 21-4 24-6c3-2 9-6 18-11c9-4 12-10 8-17c0-11-6-19-19-25c-13-6-25-9-38-10c0 0-19-1-19-1c0 0-132 0-132 0c0 0-114-204-114-204c0 0-51 0-51 0"/>
<glyph unicode="&#57347;" d="M438 438c21-21 36-43 43-66c8-24 7-39-2-47c0 0-69-69-69-69c-5-5-16-10-32-13c-15-4-32-4-49-2c0 0-209-209-209-209c-6-6-15-7-29-3c-13 4-26 12-38 25c-12 13-21 25-25 38c-5 13-4 23 2 29c0 0 209 209 209 209c-2 17-1 33 2 49c4 16 8 26 14 32c0 0 69 69 69 69c8 10 24 10 47 2c24-8 46-23 67-44m-229-209c10-11 24-8 40 8c16 15 19 29 8 42c-5 4-12 6-20 5c-8-2-16-6-22-13c-7-6-11-14-12-22c-1-8 1-14 6-20m172 153c10-10 21-19 34-26c13-6 24-11 32-12c8-2 13-2 14-1c1 1 0 6-2 14c-2 8-6 18-13 31c-7 12-15 24-26 34c-10 10-21 19-33 25c-13 7-23 12-31 14c-7 2-12 2-13 1c-2-2-2-6 0-15c2-8 6-18 13-31c7-13 15-24 25-34"/>
<glyph unicode="&#57348;" d="M174 26c-1 1 5 17 18 48c13 30 27 62 40 93c14 31 21 48 20 50c-1 2-17 10-48 23c-32 13-48 23-50 28c-2 4 13 25 43 62c30 37 60 72 92 107c31 34 48 51 49 49c2-1-11-33-38-95c-27-62-41-94-40-95c1-1 17-9 49-22c31-13 48-23 49-29c2-7-28-46-89-116c-60-71-92-105-95-103"/>
<glyph unicode="&#57349;" d="M473 392c5 2 9 2 11 0c3-3 3-6 0-10c-32-47-60-84-84-109c-23-26-42-41-56-46c-14-5-27-6-37-1c-11 4-21 11-31 19c-10 8-21 15-32 20c-12 6-28 5-48-2c-20-7-44-21-71-44c0 0 46-180 46-180c0 0-51 0-51 0c0 0-94 369-94 369c0 0 47 17 47 17c30 22 56 37 78 44c21 7 37 7 50 2c12-6 23-15 32-27c10-11 21-23 32-36c12-13 25-23 41-32c15-8 37-12 66-10c28 2 62 10 101 26"/>
<glyph unicode="&#57350;" d="M107 6c-2-7-7-8-14-4c-6 3-8 9-8 17c2 35 10 73 26 116c-34 53-43 107-27 162c4-11 9-24 17-40c7-16 15-29 22-41c8-12 13-17 17-15c2 1 2 15 0 42c-3 27-5 55-6 85c-1 30 3 57 13 81c7 15 21 31 41 48c19 17 37 29 53 36c-8-16-14-32-17-49c-3-16-4-29-2-40c2-10 5-15 11-16c4 0 18 21 43 62c24 40 42 61 54 62c16 1 35-4 58-15c24-11 38-22 42-33c4-8 4-22 0-41c-4-18-11-33-20-42c-15-15-40-26-75-32c-35-6-54-10-58-12c-6-4-4-9 6-18c18-16 48-19 90-10c-19-27-42-47-70-58c-27-12-49-18-67-20c-18-1-27-3-28-5c-1-8 7-17 25-27c18-11 36-13 52-8c-10-19-21-33-32-43c-12-9-21-15-28-17c-7-3-20-5-39-6c-19-1-33-3-43-4c0 0-36-115-36-115"/>
<glyph unicode="&#57351;" d="M474 268c5-3 7-7 7-12c0-5-2-9-7-11c0 0-190-127-190-127c-8-5-14-6-19-3c-5 2-8 9-8 18c0 0 0 247 0 247c0 9 3 16 8 18c5 3 11 2 19-3c0 0 190-127 190-127m-232 0c4-3 7-7 7-12c0-5-3-9-7-11c0 0-185-127-185-127c-6-5-13-6-18-3c-6 2-8 9-8 18c0 0 0 247 0 247c0 9 2 16 8 18c5 3 12 2 18-3c0 0 185-127 185-127"/>
<glyph unicode="&#57352;" d="M31 256c0 5 2 9 7 12c0 0 191 127 191 127c7 5 13 6 19 3c5-2 8-9 8-18c0 0 0-247 0-247c0-9-3-16-8-18c-6-3-12-2-19 3c0 0-191 127-191 127c-5 2-7 6-7 11m232 0c0 5 3 9 7 12c0 0 185 127 185 127c6 5 13 6 18 3c6-2 8-9 8-18c0 0 0-247 0-247c0-9-2-16-8-18c-5-3-12-2-18 3c0 0-185 127-185 127c-4 2-7 6-7 11"/>
<glyph unicode="&#57354;" d="M358 138c17 0 32-6 44-18c12-12 18-26 18-43c0-17-6-32-18-44c-12-12-27-18-44-18c-27 0-46 13-56 38c0 0-84 0-84 0c-30 0-52 9-67 28c-15 18-22 38-22 60c0 0 0 238 0 238c-25 11-37 30-37 56c0 17 6 32 18 44c12 12 27 18 44 18c17 0 31-6 43-18c12-12 18-27 18-44c0-26-12-45-37-56c0 0 0-58 0-58c0-27 13-40 40-40c0 0 84 0 84 0c10 24 29 36 56 36c17 0 32-6 44-17c12-12 18-27 18-44c0-17-6-32-18-44c-12-11-27-17-44-17c-27 0-46 12-56 37c0 0-84 0-84 0c-14 0-28 3-40 9c0 0 0-100 0-100c0-26 13-40 40-40c0 0 84 0 84 0c10 25 29 37 56 37m0 154c-9 0-18-4-25-10c-7-7-10-16-10-26c0-10 3-18 10-25c7-6 16-10 25-10c10 0 18 4 25 10c8 7 11 15 11 25c0 10-3 19-11 26c-7 6-15 10-25 10m-240 143c0-9 3-18 11-24c7-7 15-11 25-11c9 0 18 4 25 11c7 6 10 15 10 24c0 10-3 19-10 26c-7 7-16 10-25 10c-10 0-18-3-25-10c-8-7-11-16-11-26m240-393c10 0 18 3 25 10c8 7 11 15 11 25c0 10-3 19-11 25c-7 7-15 11-25 11c-9 0-18-4-25-11c-7-6-10-15-10-25c0-10 3-18 10-25c7-7 16-10 25-10"/>
<glyph unicode="&#57355;" d="M281 160c24-12 36-31 36-58c0-17-6-31-17-43c-12-12-27-18-44-18c-17 0-32 6-44 18c-11 12-17 26-17 43c0 27 12 46 36 58c0 0 0 193 0 193c-24 12-36 31-36 57c0 17 6 31 17 43c12 12 27 18 44 18c17 0 32-6 44-18c11-12 17-26 17-43c0-26-12-45-36-57c0 0 0-193 0-193m-60 250c0-10 4-18 10-25c7-7 15-10 25-10c10 0 18 3 25 10c7 7 11 15 11 25c0 10-4 18-11 25c-7 7-15 10-25 10c-10 0-18-3-25-10c-6-7-10-15-10-25m35-342c10 0 18 3 25 10c7 7 11 15 11 24c0 11-4 19-11 26c-7 7-15 10-25 10c-10 0-18-3-25-10c-6-7-10-15-10-26c0-9 4-17 10-24c7-7 15-10 25-10"/>
<glyph unicode="&#57356;" d="M215 410c0-26-12-45-37-57c0 0 0-193 0-193c25-12 37-31 37-58c0-17-6-31-18-43c-12-12-26-18-43-18c-17 0-32 6-44 18c-12 12-18 26-18 43c0 27 12 46 37 58c0 0 0 193 0 193c-25 12-37 31-37 57c0 17 6 31 18 43c12 12 27 18 44 18c17 0 31-6 43-18c12-12 18-26 18-43m-26-308c0 11-3 19-10 26c-7 7-16 10-25 10c-10 0-18-3-25-10c-7-7-10-15-10-26c0-9 3-17 10-24c7-7 15-10 25-10c9 0 18 3 25 10c7 7 10 15 10 24m-35 273c9 0 18 3 25 10c7 7 10 15 10 25c0 10-3 18-10 25c-7 7-16 10-25 10c-10 0-18-3-25-10c-7-7-10-15-10-25c0-10 3-18 10-25c7-7 15-10 25-10m229-215c25-12 37-31 37-58c0-17-6-31-18-43c-12-12-27-18-44-18c-17 0-31 6-43 18c-12 12-18 26-18 43c0 27 12 46 37 58c0 0 0 193 0 193c-25 12-37 31-37 57c0 17 6 31 18 43c12 12 26 18 43 18c17 0 32-6 44-18c12-12 18-26 18-43c0-26-12-45-37-57c0 0 0-193 0-193m-59 250c0-10 3-18 10-25c7-7 15-10 24-10c10 0 18 3 25 10c8 7 11 15 11 25c0 10-3 18-11 25c-7 7-15 10-25 10c-9 0-17-3-24-10c-7-7-10-15-10-25m34-342c10 0 18 3 25 10c8 7 11 15 11 24c0 11-3 19-11 26c-7 7-15 10-25 10c-9 0-17-3-24-10c-7-7-10-15-10-26c0-9 3-17 10-24c7-7 15-10 24-10"/>
<glyph unicode="&#57357;" d="M460 134c24-11 37-31 37-57c0-17-6-32-18-44c-12-12-27-18-44-18c-17 0-31 6-43 18c-12 12-18 27-18 44c0 26 12 46 37 57c0 0 0 59 0 59c0 26-13 39-39 39c0 0-51 0-51 0c-16 0-29 2-40 7c0 0 0-105 0-105c24-11 36-31 36-57c0-17-6-32-17-44c-12-12-27-18-44-18c-17 0-32 6-44 18c-11 12-17 27-17 44c0 26 12 46 36 57c0 0 0 105 0 105c-10-5-23-7-38-7c0 0-52 0-52 0c-11 0-20-3-27-9c-6-7-10-12-11-17c-1-5-2-9-2-13c0 0 0-59 0-59c25-11 37-31 37-57c0-17-6-32-18-44c-12-12-26-18-43-18c-17 0-32 6-44 18c-12 12-18 27-18 44c0 26 13 46 37 57c0 0 0 59 0 59c0 21 8 41 22 60c15 18 37 28 67 28c0 0 52 0 52 0c25 0 38 8 38 26c0 0 0 72 0 72c-24 11-36 30-36 56c0 17 6 32 17 44c12 12 27 18 44 18c17 0 32-6 44-18c11-12 17-27 17-44c0-26-12-45-36-56c0 0 0-72 0-72c0-18 13-26 40-26c0 0 51 0 51 0c29 0 51-10 66-28c14-19 22-39 22-60c0 0 0-59 0-59m-347-57c0 10-4 19-11 25c-7 7-16 11-25 11c-10 0-18-4-25-11c-7-6-10-15-10-25c0-10 3-18 10-25c7-7 15-10 25-10c9 0 18 3 25 10c7 7 11 15 11 25m108 358c0-9 4-18 10-24c7-7 15-11 25-11c10 0 18 4 25 11c7 6 11 15 11 24c0 10-4 19-11 26c-7 7-15 10-25 10c-10 0-18-3-25-10c-6-7-10-16-10-26m71-358c0 10-4 19-11 25c-7 7-15 11-25 11c-10 0-18-4-25-11c-6-6-10-15-10-25c0-10 4-18 10-25c7-7 15-10 25-10c10 0 18 3 25 10c7 7 11 15 11 25m143-35c10 0 18 3 25 10c7 7 11 15 11 25c0 10-4 19-11 25c-7 7-15 11-25 11c-9 0-18-4-24-11c-7-6-11-15-11-25c0-10 4-18 11-25c6-7 15-10 24-10"/>
<glyph unicode="&#57358;" d="M488 333c11 0 18-2 21-6c3-4 4-11 3-19c0 0-22-231-22-231c0-8-2-15-6-19c-3-5-10-7-21-7c0 0-413 0-413 0c-18 0-27 9-28 26c0 0-22 231-22 231c-1 8 0 15 3 19c3 4 10 6 21 6c0 0 464 0 464 0m-17 56c0 0 5-20 5-20c0 0-433 0-433 0c0 0 7 67 7 67c2 7 5 13 10 18c6 4 12 7 19 7c0 0 84 0 84 0c18 0 32-6 44-18c0 0 15-15 15-15c11-12 26-18 44-18c0 0 174 0 174 0c7 0 14-2 20-7c6-4 10-8 11-14"/>
<glyph unicode="&#57359;" d="M302 206c-72 0-128-8-170-23c-42-16-77-49-106-101c1 7 3 16 6 27c3 11 12 31 26 60c14 29 30 54 49 76c19 22 45 42 80 60c34 18 73 27 115 27c0 0 0 98 0 98c0 0 184-165 184-165c0 0-184-171-184-171c0 0 0 112 0 112"/>
<glyph unicode="&#57360;" d="M208 168c11 19 48 68 109 145c62 78 95 116 100 113c4-2-13-50-49-142c-37-93-61-149-71-167c-17-30-40-36-70-19c-29 17-36 41-19 70m48 194c-57 0-106-21-145-65c-40-43-60-96-60-159c0-10 1-18 1-23c1-8-1-14-6-19c-5-5-10-8-17-9c-7-1-13 1-19 6c-5 5-8 11-9 18c0 2 0 7 0 13c-1 6-1 11-1 14c0 77 25 143 74 196c50 53 110 80 182 80c25 0 47-3 69-10c0 0-36-44-36-44c-14 2-25 2-33 2m185-31c47-53 71-117 71-193c0-13 0-22-1-28c-1-7-3-13-8-17c-5-5-11-7-18-7c0 0-2 0-2 0c-7 1-13 5-18 10c-4 6-6 12-5 19c0 4 1 12 1 23c0 51-14 97-41 137c2 5 5 14 10 27c5 12 9 22 11 29"/>
<glyph unicode="&#57361;" d="M256 502c68 0 126-24 174-72c48-49 72-106 72-174c0-68-24-126-72-174c-48-48-106-72-174-72c-68 0-125 24-174 72c-48 48-72 106-72 174c0 68 24 125 72 174c49 48 106 72 174 72m210-246c0 45-13 86-40 122c-27 37-61 62-103 77c-7-9-9-14-9-17c2-13 5-21 10-26c4-4 9-5 15-3c0 0 16 6 16 6c0 0 4 0 11 1c7-8 7-16 0-24c-8-8-16-18-23-29c-8-11-8-24-1-39c12-22 28-33 49-33c10-1 17-7 22-19c5-11 8-22 9-33c3-28 1-52-7-72c-8-15-5-28 7-39c29 38 44 81 44 128m-239 207c-38-5-72-19-102-43c-29-24-51-54-65-89c2 0 6-1 12-1c5-1 10-1 14-2c4 0 9-1 13-2c5-1 9-2 13-4c3-2 5-4 6-7c1-4-1-11-7-23c-7-11-10-21-10-31c0-10 7-20 20-29c13-8 19-16 19-23c0-10 2-21 4-35c3-14 4-21 4-22c0-5 7-14 19-28c12-14 21-22 27-22c3 0 5 4 5 12c1 7 0 16-1 27c-1 11-1 18-1 21c0 11 2 23 7 38c4 14 14 26 30 36c16 9 25 17 28 23c6 12 7 22 5 31c-3 10-6 17-9 22c-3 6-9 11-17 15c-9 4-16 7-21 8c-6 2-12 4-19 5c-7 1-11 2-12 2c-5 2-12 3-21 4c-9 0-15-1-18-2c-4-1-9 1-14 6c-6 5-9 10-9 15c0 3 3 8 8 13c5 6 11 12 18 19c6 7 11 12 14 16c3 4 6 8 9 10c3 3 6 6 11 9c4 3 9 6 14 10c1 2 5 5 13 9c7 5 11 8 13 12m-37-407c23-7 45-10 66-10c44 0 82 12 116 35c-9 15-29 21-61 17c-8 0-19-3-33-8c-14-6-22-8-24-9c-25-6-38-8-39-8c-4-1-8-3-13-7c-5-5-9-8-12-10"/>
<glyph unicode="&#105;" d="M440 407c24-22 36-49 36-80c0-32-12-59-36-81c0 0-184-169-184-169c0 0-184 169-184 169c-24 22-36 49-36 81c0 31 12 58 36 80c21 19 47 29 77 29c30 0 56-10 78-29c0 0 29-27 29-27c0 0 30 27 30 27c21 19 46 29 76 29c31 0 56-10 78-29"/>
<glyph unicode="&#113;" d="M253 492c65 0 120-22 167-67c46-45 70-100 72-165c0-65-22-121-68-167c-45-47-100-71-165-73c-65 0-121 22-167 68c-47 45-71 100-72 165c-1 65 21 121 67 167c46 47 101 71 166 72m-1-379c10 0 19 3 25 9c6 7 10 15 10 24c0 11-2 19-9 26c-6 6-15 9-25 9c0 0-1 0-1 0c-10 0-18-3-24-9c-7-6-10-14-11-24c0-10 3-18 10-25c6-6 14-10 24-10c0 0 1 0 1 0m85 168c9 11 13 24 13 40c0 26-9 46-27 59c-18 13-41 19-69 19c-22 0-40-4-53-13c-24-14-36-39-37-75c0 0 0-2 0-2c0 0 56 0 56 0c0 0 0 2 0 2c0 9 3 18 8 28c6 8 15 12 28 12c14 0 23-3 27-10c5-7 8-14 8-23c0-6-3-13-8-20c-3-4-7-8-11-10c0 0-3-2-3-2c-2-2-4-4-8-6c-3-2-7-5-10-8c-4-2-7-5-11-8c-4-3-7-6-9-9c-4-7-7-20-9-40c0 0 0-4 0-4c0 0 56 0 56 0c0 0 0 2 0 2c0 4 0 9 2 14c2 7 6 13 14 19c0 0 14 9 14 9c16 12 25 20 29 26"/>
<glyph unicode="&#122;" d="M360 456c30-21 44-53 44-95c0-21-7-43-21-63c-4-7-19-20-45-41c0 0-24-15-24-15c-13-12-21-22-24-31c-2-6-4-13-4-23c0-4-3-7-8-7c0 0-66 0-66 0c-5 0-8 2-8 6c1 34 6 55 14 64c6 7 14 16 25 24c11 9 20 16 28 22c0 0 13 7 13 7c7 6 13 11 17 18c10 15 14 26 14 35c0 14-4 27-13 40c-9 13-25 19-47 19c-23 0-39-8-48-23c-10-14-14-30-14-47c0 0-85 0-85 0c2 55 21 95 58 119c24 14 52 21 85 21c44 0 81-10 109-30m-110-326c15 0 27-5 37-15c10-11 15-23 14-38c-1-16-6-28-16-38c-11-9-23-13-38-12c-15 0-28 5-38 14c-9 10-14 23-13 39c0 16 6 28 16 37c10 9 23 14 38 13"/>
<glyph unicode="&#65;" d="M399 395c0-15-8-31-24-49c-17-18-33-35-50-51c-17-16-25-29-25-39c0-10 8-23 25-39c17-16 33-32 50-50c16-17 24-34 24-49c0 0 0-61 0-61c0-11-14-24-44-37c-29-13-62-20-99-20c-37 0-70 7-99 20c-30 13-44 26-44 37c0 0 0 61 0 61c0 15 8 32 24 49c17 18 33 34 50 50c17 16 25 29 25 39c0 10-8 23-25 39c-17 16-33 33-50 51c-16 18-24 34-24 49c0 0 0 61 0 61c0 11 14 23 44 36c30 13 63 20 99 20c36 0 69-7 99-20c30-13 44-25 44-36c0 0 0-61 0-61m-246 58c0 0-10-8-10-8c-1-2 0-5 2-7c32-17 69-26 111-26c45 0 83 8 113 25c4 4 2 9-9 16c-32 18-67 27-103 27c-41 0-76-9-104-27m116-197c0 6 1 12 2 17c2 5 5 11 10 17c4 6 8 10 10 13c2 2 7 7 16 15c8 9 13 13 15 15c31 31 47 52 47 62c0 0 1 26 1 26c-34-19-72-28-114-28c-42 0-80 9-114 28c0 0 2-26 2-26c0-11 16-31 46-62c3-2 6-6 12-11c5-5 9-9 12-11c0 0 9-10 9-10c0 0 3-4 9-11c6-7 8-10 6-10c-2 0-1-4 4-12c5-8 6-12 2-12c0-3 0-7-1-10c0-3-1-6-3-9c-2-3-3-6-4-8c-1-3-3-5-6-9c0 0-6-8-6-8c0 0-2-2-7-8c-6-5-8-8-9-7c0 0-3-3-9-9c-6-5-9-8-9-8c-30-30-46-51-46-62c0 0 0-34 0-34c3 1 14 5 34 12c20 6 36 14 47 22c12 8 18 18 18 29c0 11 4 16 13 16c9 0 13-5 13-16c0-11 6-21 17-29c11-8 28-16 48-22c21-7 33-11 35-12c0 0 0 34 0 34c0 10-16 31-47 62c-2 2-5 5-11 10c-6 6-10 10-11 11c-2 2-5 5-10 10c-4 5-7 8-9 11c-2 3-4 6-6 10c-2 5-4 8-5 12c0 4-1 8-1 12"/>
<glyph unicode="&#70;" d="M496 281c14-15 19-27 15-37c0 0-14-79-14-79c-1-7-5-13-11-17c-7-4-13-7-21-7c0 0-418 0-418 0c-7 0-14 3-20 7c-6 4-10 10-11 17c0 0-15 79-15 79c-2 11 3 23 17 37c2 3 9 9 18 19c10 10 21 21 35 34c14 14 22 22 27 26c7 8 16 12 26 12c0 0 132 0 132 0c0 0 132 0 132 0c11 0 19-4 27-12c5-5 14-14 27-26c13-12 24-24 34-33c11-10 17-17 20-20m-136-17c0 0 91 0 91 0c0 0-52 59-52 59c0 0-285 0-285 0c0 0-52-59-52-59c0 0 91 0 91 0c3 0 5-1 6-4c0 0 20-51 20-51c0 0 154 0 154 0c0 0 21 51 21 51c1 3 3 4 6 4"/>
<glyph unicode="&#71;" d="M318 512c17 0 29-5 38-14c9-9 14-21 14-35c0-17-7-32-20-45c-14-13-30-20-49-20c-16 0-29 5-38 14c-9 9-13 21-12 37c0 15 6 30 18 43c12 13 28 20 49 20m-105-512c-34 0-43 30-28 91c0 0 31 130 31 130c5 19 5 29 0 29c-4 0-13-3-28-9c-14-7-26-13-36-20c0 0-14 23-14 23c31 26 63 48 97 64c34 17 60 25 77 25c27 0 33-28 19-83c0 0-36-136-36-136c-6-22-5-33 3-33c15 0 35 10 60 31c0 0 16-21 16-21c-29-29-59-52-90-67c-31-16-55-24-71-24"/>
<glyph unicode="&#72;" d="M253 492c65 0 120-22 167-67c46-45 70-100 72-165c0-65-22-121-68-167c-45-47-100-71-165-73c-65 0-121 22-167 68c-47 45-71 100-72 165c-1 65 21 121 67 167c46 47 101 71 166 72m27-78c-15 0-26-4-34-13c-8-8-12-16-12-25c0-10 2-17 8-23c6-5 14-8 25-8c13 0 24 4 31 11c8 8 12 17 12 28c0 20-10 30-30 30m-62-304c10 0 25 4 43 13c19 9 37 22 54 40c0 0-9 12-9 12c-16-12-28-18-37-18c-4 0-5 6-2 19c0 0 22 82 22 82c9 33 5 49-11 49c-11 0-26-5-46-15c-20-10-40-22-59-38c0 0 8-13 8-13c18 11 31 17 38 17c4 0 4-6 0-17c0 0-18-78-18-78c-9-36-3-53 17-53"/>
<glyph unicode="&#73;" d="M389 256c0 9-1 17-3 26c0 0 90 0 90 0c0 0 0-177 0-177c0-19-6-35-20-49c-13-13-29-20-48-20c0 0-304 0-304 0c-19 0-35 7-48 20c-14 14-20 30-20 49c0 0 0 177 0 177c0 0 89 0 89 0c-1-11-2-20-2-26c0-36 13-67 39-94c26-26 57-39 94-39c36 0 67 13 94 39c26 27 39 58 39 94m19 220c19 0 35-6 48-20c14-13 20-29 20-48c0 0 0-75 0-75c0 0-111 0-111 0c-27 37-63 56-109 56c-47 0-83-19-109-56c0 0-111 0-111 0c0 0 0 75 0 75c0 19 6 35 20 48c13 14 29 20 48 20c0 0 304 0 304 0m32-85c0 0 0 37 0 37c0 8-4 12-12 12c0 0-37 0-37 0c-8 0-12-4-12-12c0 0 0-37 0-37c0-3 1-5 3-8c3-3 6-4 9-4c0 0 37 0 37 0c8 0 12 4 12 12m-102-135c0-23-8-42-24-58c-16-16-35-24-58-24c-23 0-42 8-58 24c-16 16-24 35-24 58c0 23 8 43 24 58c16 16 35 24 58 24c23 0 42-8 58-24c16-15 24-35 24-58"/>
<glyph unicode="&#74;" d="M452 390c7-39 2-76-14-110c-16-34-42-54-77-60c-22-4-44-4-66-1c0 0-61-99-61-99c0 0-36-6-36-6c0 0-53-85-53-85c-5-10-12-15-23-17c0 0-39-7-39-7c-4-1-8-1-12 2c-3 3-5 7-6 11c0 0-8 51-8 51c-3 10-1 19 6 28c0 0 132 198 132 198c-8 17-14 37-19 61c-6 37 3 68 27 96c24 28 56 45 95 52c36 7 69-1 100-23c30-22 48-53 54-91m-64-39c10 15 14 32 11 50c-3 18-12 32-27 42c-14 11-30 15-47 12c-17-4-30-13-41-28c-2-4-4-8-6-12c-1-4-1-7 0-10c1-3 2-6 2-8c1-3 3-5 7-9c4-3 7-6 9-8c3-1 6-4 11-8c6-4 10-6 12-8c2-2 6-5 11-9c6-4 10-7 12-8c3-1 6-3 10-6c4-3 7-4 10-4c2 0 5 0 8 0c4 1 7 2 10 5c2 2 5 5 8 9"/>
<glyph unicode="&#75;" d="M476 410c10 0 18-4 25-11c7-7 11-16 11-25c0 0 0-236 0-236c0-10-4-19-11-25c-7-7-15-11-25-11c0 0-440 0-440 0c-10 0-18 4-25 11c-7 6-11 15-11 25c0 0 0 236 0 236c0 9 4 18 11 25c7 7 15 11 25 11c0 0 440 0 440 0m-194-52c0 0 0-51 0-51c0 0 51 0 51 0c0 0 0 51 0 51c0 0-51 0-51 0m76-76c0 0-51 0-51 0c0 0 0-52 0-52c0 0 51 0 51 0c0 0 0 52 0 52m-153 76c0 0 0-51 0-51c0 0 51 0 51 0c0 0 0 51 0 51c0 0-51 0-51 0m77-76c0 0-52 0-52 0c0 0 0-52 0-52c0 0 52 0 52 0c0 0 0 52 0 52m-154 76c0 0 0-51 0-51c0 0 51 0 51 0c0 0 0 51 0 51c0 0-51 0-51 0m77-76c0 0-51 0-51 0c0 0 0-52 0-52c0 0 51 0 51 0c0 0 0 52 0 52m-154 76c0 0 0-51 0-51c0 0 51 0 51 0c0 0 0 51 0 51c0 0-51 0-51 0m77-76c0 0-51 0-51 0c0 0 0-52 0-52c0 0 51 0 51 0c0 0 0 52 0 52m-26-128c0 0 0 51 0 51c0 0-51 0-51 0c0 0 0-51 0-51c0 0 51 0 51 0m282 0c0 0 0 51 0 51c0 0-256 0-256 0c0 0 0-51 0-51c0 0 256 0 256 0m77 0c0 0 0 51 0 51c0 0-51 0-51 0c0 0 0-51 0-51c0 0 51 0 51 0m-77 76c0 0 51 0 51 0c0 0 0 52 0 52c0 0-51 0-51 0c0 0 0-52 0-52m77 77c0 0 0 51 0 51c0 0-103 0-103 0c0 0 0-51 0-51c0 0 103 0 103 0"/>
<glyph unicode="&#76;" d="M184 20c0 0 0 54 0 54c0 0 144 0 144 0c0 0 0-54 0-54c-24-14-48-21-73-20c-23-1-47 6-71 20m141 84c0 0-138 0-138 0c0 25-6 49-19 72c-12 23-25 43-40 58c-14 15-26 34-37 57c-11 23-16 47-14 71c3 41 19 77 48 106c30 29 73 44 130 44c58 0 102-15 131-44c29-29 45-65 49-106c1-20-2-39-9-57c-6-18-15-35-26-50c-11-14-22-29-33-43c-12-14-21-31-30-49c-8-19-12-38-12-59m-193 254c-2-1-2-4 0-10c1-5 1-9 1-10c-1-1 0-5 2-10c3-5 4-8 3-9c0-1 1-4 4-9c3-5 5-9 6-10c1-1 3-5 7-10c3-5 6-8 7-9c1-2 3-5 7-11c5-6 7-10 9-12c30-42 49-78 57-108c0 0 42 0 42 0c8 32 27 68 57 108c2 2 6 8 13 18c7 10 12 16 13 18c1 3 4 8 9 15c4 8 7 13 8 17c1 4 2 9 3 14c1 6 1 12 0 18c-5 67-47 101-125 101c-77 0-118-34-123-101"/>
<glyph unicode="&#77;" d="M189 410c28 0 41-14 41-41c0 0 0-46 0-46c0-28-13-41-41-41c0 0-46 0-46 0c-27 0-41 13-41 41c0 0 0 46 0 46c0 27 14 41 41 41c0 0 46 0 46 0m180 0c27 0 41-14 41-41c0 0 0-46 0-46c0-28-14-41-41-41c0 0-46 0-46 0c-28 0-41 13-41 41c0 0 0 46 0 46c0 27 13 41 41 41c0 0 46 0 46 0m-180-180c28 0 41-13 41-41c0 0 0-46 0-46c0-27-13-41-41-41c0 0-46 0-46 0c-27 0-41 14-41 41c0 0 0 46 0 46c0 28 14 41 41 41c0 0 46 0 46 0m180 0c27 0 41-13 41-41c0 0 0-46 0-46c0-27-14-41-41-41c0 0-46 0-46 0c-28 0-41 14-41 41c0 0 0 46 0 46c0 28 13 41 41 41c0 0 46 0 46 0"/>
<glyph unicode="&#89;" d="M425 264c0 0-169-194-169-194c0 0-169 194-169 194c0 0 98 0 98 0c0 0 0 179 0 179c0 0 142 0 142 0c0 0 0-179 0-179c0 0 98 0 98 0"/>
<glyph unicode="&#90;" d="M263 87c0 0-194 169-194 169c0 0 194 169 194 169c0 0 0-97 0-97c0 0 180 0 180 0c0 0 0-143 0-143c0 0-180 0-180 0c0 0 0-98 0-98"/>
<glyph unicode="&#57;" d="M263 451c0 0 0-98 0-98c0 0 180 0 180 0c0 0 0-193 0-193c0 0-180 0-180 0c0 0 0-99 0-99c0 0-194 195-194 195c0 0 194 195 194 195"/>
<glyph unicode="&#34;" d="M492 256c0-65-24-120-70-166c-46-46-101-70-166-70c-65 0-120 24-166 70c-46 46-70 101-70 166c0 66 24 121 70 167c46 46 101 69 166 69c65 0 120-23 166-69c46-46 70-101 70-167m-420 0c0-51 18-94 54-130c36-36 79-54 130-54c51 0 94 18 130 54c36 36 54 79 54 130c0 51-18 95-54 131c-36 35-79 53-130 53c-51 0-94-18-130-53c-36-36-54-80-54-131m282-46c0 0-104 0-104 0c0 0 0-57 0-57c0 0-97 103-97 103c0 0 97 104 97 104c0 0 0-58 0-58c0 0 104 0 104 0c0 0 0-92 0-92"/>
<glyph unicode="&#35;" d="M358 374c0 0 0-236 0-236c0 0-204 118-204 118c0 0 204 118 204 118"/>
<glyph unicode="&#42;" d="M293 397c4 6 11 9 20 9c8 0 15-3 21-9c13-12 13-26 0-41c0 0-96-100-96-100c0 0 96-99 96-99c13-15 13-29 0-41c-6-6-13-8-21-8c-8 0-15 2-20 8c0 0-116 121-116 121c-6 5-8 11-8 19c0 8 2 15 8 20c70 74 109 114 116 121"/>
<glyph unicode="&#43;" d="M368 67c9-9 9-18 0-25c-8-9-17-9-24 0c0 0-201 202-201 202c-8 8-8 16 0 25c0 0 201 202 201 202c7 9 16 9 24 0c9-7 9-16 0-25c0 0-183-190-183-190c0 0 183-189 183-189"/>
<glyph unicode="&#44;" d="M317 169c9-9 9-17 0-25c-9-8-17-8-24 0c0 0-99 100-99 100c-8 8-8 16 0 25c0 0 99 100 99 100c7 9 15 9 24 0c9-8 9-16 0-25c0 0-80-88-80-88c0 0 80-87 80-87"/>
<glyph unicode="&#58;" d="M128 128c0 0-123 128-123 128c0 0 123 128 123 128c0 0 0-82 0-82c0 0 379 0 379 0c0 0 0-91 0-91c0 0-379 0-379 0c0 0 0-83 0-83"/>
<glyph unicode="&#61;" d="M117 179c-15 0-27 5-37 16c-10 10-14 22-14 35c0 0 0 180 0 180c0 0 71 0 71 0c0 0 0-159 0-159c0 0 187 0 187 0c0 0 0 77 0 77c0 0 122-113 122-113c0 0-122-113-122-113c0 0 0 77 0 77c0 0-207 0-207 0"/>
<glyph unicode="&#62;" d="M141 256c0 0 0-46 0-46c0 0-103 82-103 82c0 0 103 87 103 87c0 0 0-51 0-51c0 0 281 0 281 0c14 0 26-5 36-15c10-10 16-22 16-37c0 0 0-143 0-143c0 0-72 0-72 0c0 0 0 123 0 123c0 0-261 0-261 0"/>
<glyph unicode="&#64;" d="M253 492c65 0 120-22 167-67c46-45 70-100 72-165c0-65-22-121-68-167c-45-47-100-71-165-73c-65 0-121 22-167 68c-47 45-71 100-72 165c-1 65 21 121 67 167c46 47 101 71 166 72m0-31c-32 0-63-8-91-23c0 0 32-53 32-53c19 10 39 14 62 14c23 0 43-4 62-14c0 0 32 53 32 53c-30 16-62 23-97 23m-126-267c-10 20-14 41-14 62c0 22 4 43 14 63c0 0-52 32-52 32c-16-30-24-62-24-97c1-33 9-64 24-92c0 0 52 32 52 32m132-143c34 2 64 9 91 24c0 0-32 53-32 53c-20-10-41-15-62-15c-21 0-42 5-62 15c0 0-32-53-32-53c29-16 62-24 97-24m-3 92c31 0 58 11 80 34c22 22 33 48 33 79c0 31-11 58-33 80c-22 22-49 33-80 33c-31 0-58-11-80-33c-22-22-33-49-33-80c0-31 11-57 33-79c22-23 49-34 80-34m129 51c0 0 53-32 53-32c16 33 23 65 23 97c0 33-8 64-23 92c0 0-53-32-53-32c10-20 14-41 14-63c0-21-4-42-14-62"/>
<glyph unicode="&#94;" d="M486 276c7 0 13-2 18-6c5-4 8-9 8-14c0-14-9-20-26-20c0 0-24 0-24 0c-17 0-26 6-26 20c0 5 3 10 8 14c5 4 11 6 18 6c0 0 24 0 24 0m-230 120c39 0 72-13 100-41c27-27 41-60 41-99c0-40-14-73-41-100c-28-28-61-41-100-41c-39 0-72 13-99 41c-28 27-41 60-41 100c0 39 13 72 41 99c27 28 60 41 99 41m0-242c28 0 52 9 72 29c20 20 30 44 30 73c0 28-10 52-30 72c-20 20-44 30-72 30c-28 0-52-10-72-30c-20-20-30-44-30-72c0-29 10-53 30-73c20-20 44-29 72-29m-179 102c0-14-9-20-26-20c0 0-25 0-25 0c-17 0-26 6-26 20c0 5 3 10 8 14c5 4 11 6 18 6c0 0 25 0 25 0c7 0 13-2 18-6c5-4 8-9 8-14m179 179c-5 0-10 3-14 8c-4 5-6 11-6 18c0 0 0 25 0 25c0 7 2 13 6 18c4 5 9 8 14 8c5 0 10-3 14-8c4-5 6-11 6-18c0 0 0-25 0-25c0-7-2-13-6-18c-4-5-9-8-14-8m0-358c5 0 10-3 14-8c4-5 6-11 6-18c0 0 0-25 0-25c0-7-2-13-6-18c-4-5-9-8-14-8c-5 0-10 3-14 8c-4 5-6 11-6 18c0 0 0 25 0 25c0 7 2 13 6 18c4 5 9 8 14 8m188 338c0 0-17-18-17-18c-12-11-23-13-33-4c-9 10-8 21 4 33c2 2 8 8 18 18c12 12 23 13 33 3c9-9 8-20-5-32m-358-301c5 5 10 8 17 9c6 1 11-1 15-5c4-4 6-10 5-16c-1-7-4-12-8-17c0 0-19-18-19-18c-5-5-10-8-17-9c-6 0-11 1-14 5c-11 10-10 21 3 33c2 2 8 7 18 18m10 330c0 0 19-18 19-18c12-12 13-23 3-33c-4-3-9-5-15-4c-7 1-12 4-17 8c-10 11-16 16-18 18c-5 4-8 10-9 17c0 6 1 11 6 15c3 5 8 6 14 6c7-1 12-4 17-9m302-359c-12 12-13 23-4 33c10 9 21 8 33-4c0 0 17-18 17-18c13-12 14-23 5-33c-10-9-21-8-33 4c-10 10-16 16-18 18"/>
<glyph unicode="&#123;" d="M202 136c5 5 10 7 17 7c7 0 13-2 19-7c10-11 10-23 0-36c0 0-22-20-22-20c-19-19-42-29-68-29c-26 0-49 10-68 29c-19 19-29 42-29 67c0 27 10 50 29 69c0 0 76 76 76 76c24 23 48 36 73 39c26 3 47-4 66-22c5-5 8-11 8-18c0-7-3-13-8-19c-12-11-24-11-36 0c-17 17-40 11-68-17c0 0-75-75-75-75c-9-9-14-20-14-33c0-13 5-23 14-31c9-9 19-14 32-14c13 0 23 5 32 14c0 0 22 20 22 20m230 294c19-19 29-42 29-68c0-26-10-49-29-68c0 0-81-81-81-81c-25-25-51-37-77-37c-21 0-40 9-57 26c-5 5-7 10-7 17c0 7 2 13 7 19c5 4 11 7 18 7c7 0 13-3 18-7c17-17 38-13 62 12c0 0 81 80 81 80c10 9 15 20 15 32c0 13-5 24-15 32c-8 9-17 14-28 16c-11 2-22-2-31-11c0 0-26-25-26-25c-5-5-11-7-18-7c-7 0-13 2-18 7c-11 11-11 23 0 36c0 0 26 25 26 25c18 19 40 27 65 26c25-1 47-11 66-31"/>
<glyph unicode="&#124;" d="M128 179c7 0 13-2 18-7c5-6 8-12 8-18c0-7-3-13-8-18c-5-5-11-8-18-8c0 0-26 0-26 0c-6 0-12 3-18 8c-5 5-7 11-7 18c0 6 2 12 7 18c5 5 11 7 18 7c0 0 26 0 26 0m0 103c7 0 13-3 18-8c5-5 8-11 8-18c0-7-3-13-8-18c-5-5-11-8-18-8c0 0-26 0-26 0c-6 0-12 3-18 8c-5 5-7 11-7 18c0 7 2 13 7 18c5 5 11 8 18 8c0 0 26 0 26 0m0 102c7 0 13-3 18-8c5-5 8-11 8-18c0-6-3-12-8-18c-5-5-11-7-18-7c0 0-26 0-26 0c-6 0-12 2-18 7c-5 6-7 12-7 18c0 7 2 13 7 18c5 5 11 8 18 8c0 0 26 0 26 0m102-51c-6 0-12 2-18 7c-5 6-7 12-7 18c0 7 2 13 7 18c6 5 12 8 18 8c0 0 180 0 180 0c7 0 13-3 18-8c5-5 7-11 7-18c0-6-2-12-7-18c-6-5-12-7-18-7c0 0-180 0-180 0m180-51c7 0 13-3 18-8c5-5 7-11 7-18c0-7-2-13-7-18c-6-5-12-8-18-8c0 0-180 0-180 0c-6 0-12 3-18 8c-5 5-7 11-7 18c0 7 2 13 7 18c6 5 12 8 18 8c0 0 180 0 180 0m0-103c7 0 13-2 18-7c5-6 7-12 7-18c0-7-2-13-7-18c-6-5-12-8-18-8c0 0-180 0-180 0c-6 0-12 3-18 8c-5 5-7 11-7 18c0 6 2 12 7 18c6 5 12 7 18 7c0 0 180 0 180 0"/>
<glyph unicode="&#57344;" d="M179 282c8 0 14-3 19-8c4-5 7-11 7-18c0-7-3-13-8-18c-5-5-11-8-18-8c0 0-153 0-153 0c-7 0-13 3-18 8c-5 5-8 11-8 18c0 7 2 13 7 18c5 5 11 8 19 8c0 0 153 0 153 0m0-103c8 0 14-2 19-7c4-6 7-12 7-18c0-7-3-13-8-18c-5-5-11-8-18-8c0 0-153 0-153 0c-7 0-13 3-18 8c-5 5-8 11-8 18c0 6 2 12 7 18c5 5 11 7 19 7c0 0 153 0 153 0m318 103c10 0 15-9 15-26c0-17-5-26-15-26c0 0-87 0-87 0c0 0 0-87 0-87c0-10-9-15-26-15c-17 0-26 5-26 15c0 0 0 87 0 87c0 0-84 0-84 0c-10 0-15 9-15 26c0 17 5 26 15 26c0 0 84 0 84 0c0 0 0 87 0 87c0 10 9 15 26 15c17 0 26-5 26-15c0 0 0-87 0-87c0 0 87 0 87 0m-318 102c8 0 14-3 19-8c4-5 7-11 7-18c0-6-3-12-8-18c-5-5-11-7-18-7c0 0-153 0-153 0c-7 0-13 2-18 7c-5 6-8 12-8 18c0 7 2 13 7 18c5 5 11 8 19 8c0 0 153 0 153 0"/>
<glyph unicode="&#57345;" d="M256 461c36 0 66-13 91-38c25-24 37-55 37-90c0-36-11-78-32-125c-21-46-42-84-64-114c0 0-32-43-32-43c-3 4-8 10-14 18c-6 8-16 23-31 46c-14 22-27 44-38 66c-12 22-22 47-31 76c-9 28-14 53-14 76c0 35 12 66 37 90c25 25 56 38 91 38m0-199c19 0 36 7 49 21c14 13 21 30 21 49c0 19-7 35-21 48c-13 14-30 20-49 20c-19 0-35-6-49-20c-13-13-20-29-20-48c0-19 7-36 20-49c14-14 30-21 49-21"/>
<glyph unicode="&#57346;" d="M404 321c7 0 14-4 21-10c7-7 10-14 10-21c0 0 0-200 0-200c0-16-8-28-24-34c0 0-31-9-31-9c-14-5-31-8-49-8c0 0-149 0-149 0c-19 0-36 3-50 8c0 0-31 9-31 9c-16 6-24 18-24 34c0 0 0 200 0 200c0 7 2 14 7 21c6 6 12 10 18 10c0 0 52 0 52 0c0 0 0 35 0 35c0 38 8 67 26 87c17 21 43 31 76 31c33 0 59-10 76-31c18-20 26-49 26-87c0 0 0-35 0-35c0 0 46 0 46 0m-199 46c0 0 0-46 0-46c0 0 102 0 102 0c0 0 0 46 0 46c0 17-4 31-14 41c-9 10-21 15-37 15c-16 0-28-5-37-15c-10-10-14-24-14-41"/>
<glyph unicode="&#57353;" d="M404 307c7 0 14-3 21-10c7-7 10-14 10-21c0 0 0-199 0-199c0-7-2-14-7-20c-5-7-11-11-17-13c0 0-31-10-31-10c-18-6-34-8-49-8c0 0-149 0-149 0c-15 0-32 2-50 8c0 0-31 10-31 10c-6 2-12 6-17 13c-5 6-7 13-7 20c0 0 0 199 0 199c0 8 2 15 7 21c6 7 12 10 18 10c0 0 205 0 205 0c0 0 0 72 0 72c0 37-17 56-51 56c-34 0-51-19-51-56c0 0 0-21 0-21c0 0-51 0-51 0c0 0 0 11 0 11c0 37 8 66 26 87c17 20 43 30 76 30c68 0 102-39 102-117c0 0 0-62 0-62c0 0 46 0 46 0"/>
<glyph unicode="&#57362;" d="M435 486c15 0 27-5 37-14c9-10 14-22 14-37c0 0 0-358 0-358c0-14-5-26-14-36c-10-10-22-15-37-15c0 0-230 0-230 0c-14 0-26 5-36 15c-9 10-14 22-14 36c0 0 0 51 0 51c0 0 50 0 50 0c0 0 0-51 0-51c0 0 230 0 230 0c0 0 0 358 0 358c0 0-230 0-230 0c0 0 0-77 0-77c0 0-50 0-50 0c0 0 0 77 0 77c0 15 5 27 14 37c10 9 22 14 36 14c0 0 230 0 230 0m-179-343c0 0 0 62 0 62c0 0-230 0-230 0c0 0 0 77 0 77c0 0 230 0 230 0c0 0 0 61 0 61c0 0 102-99 102-99c0 0-102-101-102-101"/>
<glyph unicode="&#57363;" d="M283 77c0 0 0 51 0 51c0 0 50 0 50 0c0 0 0-51 0-51c0-14-5-26-15-36c-10-10-22-15-36-15c0 0-205 0-205 0c-14 0-26 5-36 15c-10 10-15 22-15 36c0 0 0 358 0 358c0 15 5 27 15 37c10 9 22 14 36 14c0 0 205 0 205 0c14 0 26-5 36-14c10-10 15-22 15-37c0 0 0-77 0-77c0 0-50 0-50 0c0 0 0 77 0 77c0 0-206 0-206 0c0 0 0-358 0-358c0 0 206 0 206 0m203 167c0 0-101-101-101-101c0 0 0 62 0 62c0 0-230 0-230 0c0 0 0 77 0 77c0 0 230 0 230 0c0 0 0 61 0 61c0 0 101-99 101-99"/>
<glyph unicode="&#57364;" d="M435 353c15 0 27-5 37-15c9-9 14-22 14-36c0 0 0-148 0-148c0-14-5-26-14-36c-10-10-22-16-37-16c0 0-358 0-358 0c-14 0-26 6-36 16c-10 10-15 22-15 36c0 0 0 148 0 148c0 14 5 27 15 36c10 10 22 15 36 15c0 0 128 0 128 0c0 0 0 57 0 57c0 0 102-93 102-93c0 0-102-92-102-92c0 0 0 57 0 57c0 0-108 0-108 0c0 0 0-108 0-108c0 0 318 0 318 0c0 0 0 108 0 108c0 0-77 0-77 0c0 0 0 71 0 71c0 0 97 0 97 0"/>
<glyph unicode="&#57365;" d="M311 54c0 0 8 84 8 84c0 0 134-10 134-10c0 0-9-85-9-85c-1-10-6-14-16-12c0 0-102 8-102 8c-10 0-15 5-15 15m-251 74c0 0 133 10 133 10c0 0 8-84 8-84c0-4-1-7-3-10c-3-4-7-5-12-5c0 0-101-8-101-8c-4-1-8 0-11 3c-4 3-5 6-5 9c0 0-9 85-9 85m-13 138c-1 4-1 10-1 18c0 54 21 101 62 139c40 39 90 58 148 58c58 0 108-19 148-58c41-38 62-85 62-139c0-8 0-14-1-18c0 0-8-87-8-87c0 0-132 11-132 11c0 0 8 88 8 88c0 0 0 6 0 6c0 19-8 36-23 50c-15 14-33 21-54 21c-21 0-39-7-54-21c-15-14-23-31-23-50c0 0 0-6 0-6c0 0 8-88 8-88c0 0-132-11-132-11c0 0-8 87-8 87"/>
<glyph unicode="&#57366;" d="M41 377c-11 6-16 13-14 20c0 5 5 7 13 7c0 0 433 0 433 0c13 0 16-5 10-16c-2-5-6-8-12-11c-5-2-38-20-98-52c-61-33-92-50-93-51c-6-3-14-5-24-5c-10 0-17 2-24 5c-1 1-32 18-93 51c-60 32-93 50-98 52m435-51c7 3 10 1 10-5c0 0 0-189 0-189c0-5-2-11-8-16c-6-6-12-8-17-8c0 0-410 0-410 0c-5 0-11 2-17 8c-5 5-8 11-8 16c0 0 0 189 0 189c0 6 3 8 10 5c0 0 196-103 196-103c7-3 14-5 24-5c10 0 17 2 24 5c0 0 196 103 196 103"/>
<glyph unicode="&#57367;" d="M504 384c5-3 8-9 8-15c0 0 0-299 0-299c0-7-3-12-8-16c-3-2-6-3-8-3c-3 0-6 1-10 3c0 0-110 70-110 70c0 0-111-70-111-70c-6-3-12-3-17 0c0 0-112 70-112 70c0 0-110-70-110-70c-6-3-12-3-18 0c-5 4-8 9-8 16c0 0 0 299 0 299c0 6 3 12 8 15c0 0 120 75 120 75c6 3 12 3 17 0c0 0 111-70 111-70c0 0 112 70 112 70c5 3 11 3 16 0c0 0 120-75 120-75m-384-230c0 0 0 259 0 259c0 0-86-54-86-54c0 0 0-259 0-259c0 0 86 54 86 54m120-54c0 0 0 259 0 259c0 0-86 54-86 54c0 0 0-259 0-259c0 0 86-54 86-54m119 54c0 0 0 259 0 259c0 0-87-54-87-54c0 0 0-259 0-259c0 0 87 54 87 54m119-54c0 0 0 259 0 259c0 0-86 54-86 54c0 0 0-259 0-259c0 0 86-54 86-54"/>
<glyph unicode="&#57368;" d="M442 333c19-47 31-91 34-132c3-41-4-65-20-72c-10-4-20-4-31 2c-12 5-23 12-34 20c-11 9-27 16-50 21c-23 5-49 7-77 4c-9-1-16-4-21-10c-5-5-6-11-3-19c7-19 15-37 23-55c2-3 6-7 13-11c7-4 11-8 12-10c5-12 1-20-11-24c-17-7-35-14-53-20c-10-4-19 3-27 21c-11 26-21 49-30 68c-2 4-8 7-17 8c-10 2-18 7-24 16c-10-3-17-6-19-7c-12-4-25-2-38 6c-14 8-23 19-28 31c-5 11-6 24-2 40c3 16 11 27 22 32c43 17 79 36 109 55c29 19 51 37 63 53c13 16 23 31 30 47c8 15 12 28 13 40c1 11 4 21 8 30c4 9 10 15 18 18c17 7 39-5 67-35c28-31 52-70 73-117m-15-154c3 2 5 8 5 20c1 11-1 28-5 50c-5 22-12 44-21 65c-10 23-21 44-35 63c-13 20-24 34-34 43c-9 10-16 13-18 12c-3-1-5-8-5-21c-1-13 1-31 5-54c4-23 11-46 20-68c10-23 21-43 35-61c14-18 25-31 35-39c9-8 16-11 18-10"/>
<glyph unicode="&#57369;" d="M410 282c7 0 13-3 18-8c5-5 7-11 7-18c0-7-2-13-7-18c-6-5-12-8-18-8c0 0-308 0-308 0c-6 0-12 3-18 8c-5 5-7 11-7 18c0 7 2 13 7 18c5 5 11 8 18 8c0 0 308 0 308 0m-308 51c-6 0-12 2-18 7c-5 6-7 12-7 18c0 7 2 13 7 18c5 5 11 8 18 8c0 0 308 0 308 0c7 0 13-3 18-8c5-5 7-11 7-18c0-6-2-12-7-18c-6-5-12-7-18-7c0 0-308 0-308 0m308-154c7 0 13-2 18-7c5-6 7-12 7-18c0-7-2-13-7-18c-6-5-12-8-18-8c0 0-308 0-308 0c-6 0-12 3-18 8c-5 5-7 11-7 18c0 6 2 12 7 18c5 5 11 7 18 7c0 0 308 0 308 0"/>
<glyph unicode="&#57370;" d="M410 327c6 0 10-4 10-11c0 0 0-70 0-70c0-32-12-60-35-84c-24-25-58-39-103-43c0 0 0-68 0-68c0 0 66 0 66 0c7 0 10-3 10-10c0 0 0-31 0-31c0-7-3-10-10-10c0 0-184 0-184 0c-7 0-10 3-10 10c0 0 0 31 0 31c0 7 3 10 10 10c0 0 66 0 66 0c0 0 0 68 0 68c-45 4-79 18-103 43c-23 24-35 52-35 84c0 0 0 70 0 70c0 7 4 11 10 11c0 0 16 0 16 0c7 0 10-4 10-11c0 0 0-70 0-70c0-23 10-44 30-63c20-20 53-29 98-29c45 0 78 9 98 29c20 19 30 40 30 63c0 0 0 70 0 70c0 7 3 11 10 11c0 0 16 0 16 0m-154-122c-27 0-47 4-59 13c-12 8-18 18-18 28c0 0 0 81 0 81c0 0 154 0 154 0c0 0 0-81 0-81c0-10-6-20-18-28c-12-9-32-13-59-13m77 266c0 0 0-109 0-109c0 0-154 0-154 0c0 0 0 109 0 109c0 10 6 20 18 28c12 9 32 13 59 13c27 0 47-4 59-13c12-8 18-18 18-28"/>
<glyph unicode="&#57371;" d="M256 471c59 0 110-21 152-63c42-42 63-93 63-152c0-59-21-110-63-152c-42-42-93-63-152-63c-59 0-110 21-152 63c-42 42-63 93-63 152c0 59 21 110 63 152c42 42 93 63 152 63m129-188c0 0-258 0-258 0c0 0 0-53 0-53c0 0 258 0 258 0c0 0 0 53 0 53"/>
<glyph unicode="&#57372;" d="M424 425c11-11 19-22 24-33c5-11 8-19 8-24c0 0 0-9 0-9c0 0-129-129-129-129c0 0-149-147-149-147c0 0-122-27-122-27c0 0 26 123 26 123c0 0 148 148 148 148c0 0 129 129 129 129c19 4 40-6 65-31m-253-328c0 0 12 13 12 13c0 15-9 31-26 48c-8 7-16 13-23 18c-8 4-14 6-18 6c0 0-7 1-7 1c0 0-12-12-12-12c0 0-9-41-9-41c10-5 17-11 24-17c8-9 14-17 18-25c0 0 41 9 41 9"/>
<glyph unicode="&#57373;" d="M478 445c5 2 8 1 11-1c3-2 4-6 2-10c0-2-13-55-37-159c-23-103-36-157-37-161c-1-5-4-8-8-10c-4-2-8-2-12 0c0 0-127 69-127 69c0 0-15 8-15 8c0 0 11 14 11 14c132 143 200 216 202 218c1 1 1 3-1 4c-2 2-3 2-4 1c0 0-282-206-282-206c0 0-57 22-57 22c0 0-98 39-98 39c-4 2-6 4-6 7c0 2 2 4 6 6c3 1 78 28 226 80c148 52 223 79 226 79m-298-372c0 0 0 104 0 104c0 0 82-42 82-42c-44-39-69-61-73-65c-6-5-9-4-9 3"/>
<glyph unicode="&#57374;" d="M136 425c50 0 81-25 94-75c13-48 6-99-21-154c-27-58-65-93-114-105c-11-3-22-4-34-4c0 0 0 36 0 36c38 0 69 18 93 55c19 30 23 54 13 75c-5 12-16 18-31 18c-21 0-38 8-53 23c-15 15-22 33-22 54c0 21 7 39 22 54c15 15 32 23 53 23m215 0c50 0 81-25 94-75c13-48 6-99-21-154c-27-58-65-93-114-105c-11-3-22-4-34-4c0 0 0 36 0 36c38 0 69 18 93 55c19 30 23 54 13 75c-5 12-16 18-31 18c-21 0-38 8-53 23c-15 15-22 33-22 54c0 21 7 39 22 54c15 15 32 23 53 23"/>
<glyph unicode="&#57375;" d="M248 425c0 0 195-169 195-169c0 0-195-169-195-169c0 0 0 98 0 98c0 0-179 0-179 0c0 0 0 143 0 143c0 0 179 0 179 0c0 0 0 97 0 97"/>
<glyph unicode="&#57376;" d="M248 451c0 0 195-195 195-195c0 0-195-195-195-195c0 0 0 99 0 99c0 0-179 0-179 0c0 0 0 193 0 193c0 0 179 0 179 0c0 0 0 98 0 98"/>
<glyph unicode="&#57377;" d="M20 256c0 65 24 120 70 166c46 46 101 70 166 70c65 0 120-24 166-70c46-46 70-101 70-166c0-65-24-120-70-166c-46-46-101-70-166-70c-65 0-120 24-166 70c-46 46-70 101-70 166m420 0c0 51-18 95-53 131c-36 35-80 53-131 53c-51 0-94-18-130-53c-36-36-54-80-54-131c0-51 18-94 54-130c36-36 79-54 130-54c51 0 95 18 131 54c35 36 53 79 53 130m-282 46c0 0 104 0 104 0c0 0 0 58 0 58c0 0 97-104 97-104c0 0-97-103-97-103c0 0 0 57 0 57c0 0-104 0-104 0c0 0 0 92 0 92"/>
<glyph unicode="&#57378;" d="M154 374c0 0 204-118 204-118c0 0-204-118-204-118c0 0 0 236 0 236"/>
<glyph unicode="&#57379;" d="M219 397c0 0 116-121 116-121c5-5 8-12 8-20c0-8-3-14-8-19c0 0-116-121-116-121c-5-6-12-8-20-8c-9 0-15 2-21 8c-12 12-12 26 0 41c0 0 95 99 95 99c0 0-95 100-95 100c-12 15-12 29 0 41c6 6 13 9 21 9c9 0 15-3 20-9"/>
<glyph unicode="&#57380;" d="M144 67c0 0 183 189 183 189c0 0-183 190-183 190c-9 9-9 18 0 25c8 9 17 9 24 0c0 0 201-202 201-202c8-9 8-17 0-25c0 0-201-202-201-202c-7-9-16-9-24 0c-9 7-9 16 0 25"/>
<glyph unicode="&#57381;" d="M195 169c0 0 81 87 81 87c0 0-81 88-81 88c-9 9-9 17 0 25c9 9 17 9 24 0c0 0 99-100 99-100c8-9 8-17 0-25c0 0-99-100-99-100c-7-8-15-8-24 0c-9 8-9 16 0 25"/>
<glyph unicode="&#57382;" d="M385 128c0 0 0 83 0 83c0 0-380 0-380 0c0 0 0 91 0 91c0 0 380 0 380 0c0 0 0 82 0 82c0 0 122-128 122-128c0 0-122-128-122-128"/>
<glyph unicode="&#57383;" d="M185 361c0 0-108-96-108-96c0 0 108-100 108-100c0 0 0-71 0-71c0 0-185 171-185 171c0 0 185 165 185 165c0 0 0-69 0-69m128-29c36 0 67-9 94-26c26-17 46-38 58-62c13-25 23-49 31-74c8-25 13-45 14-62c0 0 2-26 2-26c-29 52-58 86-86 101c-28 15-66 23-113 23c0 0 0-112 0-112c0 0-185 171-185 171c0 0 185 165 185 165c0 0 0-98 0-98"/>
<glyph unicode="&#57384;" d="M486 82c-29 52-64 85-106 101c-42 15-98 23-169 23c0 0 0-112 0-112c0 0-185 171-185 171c0 0 185 165 185 165c0 0 0-98 0-98c31 0 59-5 86-14c27-9 49-21 67-36c18-15 35-31 49-49c15-17 27-35 36-53c8-18 16-34 22-48c6-15 10-27 12-36c0 0 3-14 3-14"/>
<glyph unicode="&#57385;" d="M297 459c0 0 162 0 162 0c0 0 0-162 0-162c0 0-51 63-51 63c0 0-75-77-75-77c0 0-51 51-51 51c0 0 77 75 77 75c0 0-62 50-62 50m-118-228c0 0 51-51 51-51c0 0-77-75-77-75c0 0 62-51 62-51c0 0-162 0-162 0c0 0 0 162 0 162c0 0 51-62 51-62c0 0 75 77 75 77"/>
<glyph unicode="&#57386;" d="M105 152c0 0-54 51-54 51c0 0 152 0 152 0c0 0 0-152 0-152c0 0-51 54-51 54c0 0-75-79-75-79c0 0-51 51-51 51c0 0 79 75 79 75m381 283c0 0-78-74-78-74c0 0 53-51 53-51c0 0-151 0-151 0c0 0 0 151 0 151c0 0 51-53 51-53c0 0 74 78 74 78c0 0 51-51 51-51"/>
<glyph unicode="&#57387;" d="M450 117c10-12 11-22 3-32c0 0-24-24-24-24c-12-10-24-10-35 0c0 0-97 98-97 98c-25-15-52-22-80-22c-44 0-82 16-114 49c-33 32-49 70-49 114c0 44 16 81 46 112c31 31 68 47 112 47c44 0 82-16 115-49c32-32 49-70 49-114c0-30-8-58-24-83c0 0 98-96 98-96m-348 183c0-30 12-57 35-80c23-23 50-35 80-35c30 0 56 11 77 33c22 21 33 47 33 78c0 30-12 56-35 79c-23 23-50 35-80 35c-30 0-56-11-77-33c-22-21-33-47-33-77"/>
<glyph unicode="&#57388;" d="M384 179c21 0 39-7 54-22c15-14 23-33 23-55c0-21-8-39-23-54c-15-15-33-22-54-22c-21 0-39 7-54 22c-15 15-23 33-23 54c0 2 0 5 1 8c0 2 0 4 0 6c0 0-133 80-133 80c-14-11-30-17-47-17c-21 0-39 8-54 23c-15 15-23 33-23 54c0 21 8 39 23 54c15 15 33 23 54 23c18 0 34-5 47-16c0 0 133 80 133 80c0 2 0 4 0 6c-1 3-1 5-1 7c0 21 8 39 23 54c15 15 33 22 54 22c21 0 39-7 54-22c15-14 23-33 23-54c0-22-8-40-23-55c-15-15-33-22-54-22c-18 0-33 5-46 16c0 0-134-80-134-80c0-2 1-7 1-13c0-5-1-10-1-12c0 0 134-80 134-80c12 10 28 15 46 15"/>
<glyph unicode="&#57389;" d="M256 481c0 0 61-172 61-172c0 0 164 0 164 0c0 0-134-100-134-100c0 0 48-178 48-178c0 0-139 106-139 106c0 0-139-106-139-106c0 0 48 178 48 178c0 0-134 100-134 100c0 0 164 0 164 0c0 0 61 172 61 172"/>
<glyph unicode="&#57390;" d="M481 309c0 0-134-100-134-100c0 0 48-178 48-178c0 0-139 106-139 106c0 0-139-106-139-106c0 0 48 178 48 178c0 0-134 100-134 100c0 0 164 0 164 0c0 0 61 172 61 172c0 0 61-172 61-172c0 0 164 0 164 0m-225-122c0 0 77-63 77-63c0 0-32 91-32 91c0 0 74 58 74 58c0 0-90-2-90-2c0 0-29 104-29 104c0 0-28-104-28-104c0 0-90 2-90 2c0 0 73-58 73-58c0 0-32-91-32-91c0 0 77 63 77 63"/>
<glyph unicode="&#57391;" d="M461 410c7 0 13-3 18-8c5-5 7-11 7-18c0 0 0-102 0-102c0 0-256 0-256 0c0 0 0 128 0 128c0 0 231 0 231 0m-435-282c0 0 0 102 0 102c0 0 153 0 153 0c0 0 0-128 0-128c0 0-133 0-133 0c-14 0-20 9-20 26m204-26c0 0 0 128 0 128c0 0 256 0 256 0c0 0 0-102 0-102c0-8-2-14-7-18c-5-5-11-8-18-8c0 0-231 0-231 0m-204 282c0 17 6 26 20 26c0 0 133 0 133 0c0 0 0-128 0-128c0 0-153 0-153 0c0 0 0 102 0 102"/>
<glyph unicode="&#57392;" d="M358 380c0 0 0-72 0-72c0 0-256 0-256 0c0 0 0-46 0-46c0 0-102 82-102 82c0 0 102 87 102 87c0 0 0-51 0-51c0 0 256 0 256 0m154-215c0 0-102-82-102-82c0 0 0 46 0 46c0 0-256 0-256 0c0 0 0 72 0 72c0 0 256 0 256 0c0 0 0 51 0 51c0 0 102-87 102-87"/>
<glyph unicode="&#57393;" d="M493 502c13-36 11-70-4-102c-15-32-37-59-65-81c0 0 9-12 9-12c5-9 6-19 3-27c0 0-25-81-25-81c-4-11-10-18-18-24c0 0-238-168-238-168c-14-10-25-9-32 2c0 0-108 156-108 156c-4 6-6 13-5 20c2 7 5 13 11 17c0 0 238 168 238 168c9 6 18 9 27 9c0 0 81 0 81 0c11 0 19-5 25-13c0 0 14-21 14-21c58 44 77 93 59 147c-4 9-1 16 9 20c11 3 17-1 19-10m-110-240c13 11 19 25 17 41c0 0-16-8-16-8c-3-1-5-2-6-2c-7 0-11 3-15 9c-4 10-1 17 8 21c0 0 13 7 13 7c-17 11-32 11-47 0c-10-6-16-15-18-26c-2-12 1-22 7-32c7-8 15-14 27-16c11-2 21 0 30 6"/>
<glyph unicode="&#57394;" d="M163 188c-1 2-11 5-29 7c-19 2-38 7-56 12c-18 6-27 14-27 24c0 25 11 74 32 146c21 73 39 109 54 109c49 0 99-7 148-22c49-14 73-29 73-45c0 0 0-175 0-175c0-4-1-8-4-13c-2-4-7-9-12-15c-6-5-12-10-17-15c-5-4-12-10-21-16c-10-7-17-12-21-15c-5-3-12-8-21-14c0 0-17-12-17-12c-17-11-35-28-54-51c-18-22-32-40-43-53c-11-13-18-17-21-13c-16 26-21 49-15 70c7 21 17 41 30 61c14 19 21 30 21 30m221 2c-4 0-4 3 1 8c16 17 25 34 25 53c0 0 0 163 0 163c0 17-9 35-27 53c-3 3-3 5 1 5c9 0 18-1 28-4c10-3 21-10 32-23c11-13 17-30 17-51c0 0 0-124 0-124c0-16-3-30-9-41c-7-11-14-20-23-25c-10-5-18-8-25-10c-7-3-14-4-20-4"/>
<glyph unicode="&#57395;" d="M349 323c1-2 11-5 30-7c19-2 37-7 55-12c18-6 27-14 27-24c0-25-11-73-31-146c-21-72-40-108-55-108c-49 0-99 7-148 21c-49 14-73 29-73 45c0 0 0 175 0 175c0 5 2 11 7 18c5 6 13 14 24 23c10 8 19 15 27 21c7 5 18 13 32 22c13 9 21 14 23 16c17 11 35 28 54 51c18 22 32 40 43 53c11 13 18 17 21 13c16-26 21-49 15-70c-7-21-17-41-30-61c-14-20-21-30-21-30m-221-2c5 0 5-3 0-8c-17-17-26-34-26-53c0 0 0-163 0-163c0-17 9-35 27-53c3-3 3-5-1-5c-9 0-18 1-28 4c-10 3-21 10-32 23c-11 13-17 30-17 51c0 0 0 124 0 124c0 21 6 38 17 51c11 13 22 21 32 24c11 3 20 5 28 5"/>
<glyph unicode="&#57396;" d="M87 311c42-24 98-36 169-36c71 0 127 12 169 36c0 0-28-249-28-249c0-4-6-10-18-18c-11-7-28-15-51-22c-23-7-47-11-72-11c-25 0-49 4-72 11c-22 7-39 15-51 22c-11 8-18 14-18 18c0 0-28 249-28 249m250 154c32-6 59-16 81-28c22-13 33-25 33-37c0 0 0-5 0-5c0-20-20-36-58-50c-38-14-84-21-137-21c-53 0-99 7-137 21c-38 14-58 30-58 50c0 0 0 5 0 5c0 12 11 24 33 37c22 12 49 22 81 28c0 0 22 24 22 24c7 9 19 14 35 14c0 0 48 0 48 0c17 0 29-5 35-14c0 0 22-24 22-24m-28-57c0 0 43 0 43 0c-31 37-49 59-53 64c-5 6-10 8-16 8c0 0-53 0-53 0c-7 0-13-2-16-8c0 0-54-64-54-64c0 0 43 0 43 0c0 0 33 33 33 33c0 0 42 0 42 0c0 0 31-33 31-33"/>
<glyph unicode="&#57397;" d="M425 249c0 0-98 0-98 0c0 0 0-179 0-179c0 0-142 0-142 0c0 0 0 179 0 179c0 0-98 0-98 0c0 0 169 194 169 194c0 0 169-194 169-194"/>
<glyph unicode="&#57398;" d="M451 249c0 0-99 0-99 0c0 0 0-179 0-179c0 0-192 0-192 0c0 0 0 179 0 179c0 0-99 0-99 0c0 0 195 194 195 194c0 0 195-194 195-194"/>
<glyph unicode="&#57399;" d="M256 20c-65 0-120 24-166 70c-46 46-70 101-70 166c0 66 24 121 70 167c46 46 101 69 166 69c65 0 120-23 166-69c46-46 70-101 70-167c0-65-24-120-70-166c-46-46-101-70-166-70m0 420c-51 0-94-18-130-53c-36-36-54-80-54-131c0-51 18-94 54-130c36-36 79-54 130-54c51 0 95 18 131 54c35 36 53 79 53 130c0 51-18 95-53 131c-36 35-80 53-131 53m-46-282c0 0 0 104 0 104c0 0-57 0-57 0c0 0 103 98 103 98c0 0 103-98 103-98c0 0-57 0-57 0c0 0 0-104 0-104c0 0-92 0-92 0"/>
<glyph unicode="&#57400;" d="M138 154c0 0 118 204 118 204c0 0 118-204 118-204c0 0-236 0-236 0"/>
<glyph unicode="&#57401;" d="M396 220c6-5 8-12 8-21c0-8-2-15-8-21c-13-13-26-13-40 0c0 0-100 96-100 96c0 0-100-96-100-96c-14-13-27-13-40 0c-6 6-8 13-8 21c0 9 2 16 8 21c0 0 120 115 120 115c5 5 12 8 20 8c8 0 15-3 20-8c0 0 120-115 120-115"/>
<glyph unicode="&#57402;" d="M384 385c0 0-83 0-83 0c0 0 0-380 0-380c0 0-90 0-90 0c0 0 0 380 0 380c0 0-83 0-83 0c0 0 128 122 128 122c0 0 128-122 128-122"/>
<glyph unicode="&#57403;" d="M256 474c0 0 133-125 133-125c0 0-84 0-84 0c0 0 0-131 0-131c0 0-97 0-97 0c0 0 0 131 0 131c0 0-85 0-85 0c0 0 133 125 133 125m239-296c7-3 11-9 14-16c3-8 4-15 2-21c0 0-14-79-14-79c-2-6-6-12-12-16c-6-5-13-7-20-7c0 0-418 0-418 0c-8 0-14 2-21 7c-6 4-9 10-11 16c0 0-14 79-14 79c-4 17 2 29 16 37c0 0 81 55 81 55c0 0 50 0 50 0c0 0-87-66-87-66c0 0 91 0 91 0c3 0 5-1 7-4c0 0 20-57 20-57c0 0 154 0 154 0c0 0 20 57 20 57c3 3 5 4 6 4c0 0 91 0 91 0c0 0-87 66-87 66c0 0 51 0 51 0c0 0 81-55 81-55"/>
<glyph unicode="&#57404;" d="M389 330c34 0 63-12 87-35c24-23 36-52 36-85c0-34-12-62-36-85c-24-23-53-35-87-35c0 0-97 0-97 0c0 0 0 97 0 97c0 0 54 0 54 0c0 0-90 118-90 118c0 0-89-118-89-118c0 0 53 0 53 0c0 0 0-97 0-97c0 0-127 0-127 0c-25 0-47 9-65 27c-19 17-28 39-28 63c0 25 9 47 27 65c18 17 40 26 66 26c5 0 8 0 10-1c0 4-1 11-1 20c0 37 14 68 40 94c27 26 59 39 97 39c30 0 58-9 82-27c23-17 39-40 48-68c9 1 16 2 20 2"/>
<glyph unicode="&#57405;" d="M392 142c70-24 105-45 105-62c0 0 0-54 0-54c0 0-241 0-241 0c0 0-241 0-241 0c0 0 0 54 0 54c0 17 35 38 105 62c32 12 54 24 65 36c12 12 18 28 18 48c0 8-4 16-12 25c-7 10-12 22-16 38c-1 4-2 7-5 9c-2 2-4 3-7 4c-2 1-4 4-7 9c-2 5-4 12-4 22c0 5 0 10 2 13c2 4 3 6 5 6c0 0 2 2 2 2c-3 17-5 32-6 45c-2 19 5 38 21 58c15 19 42 29 80 29c38 0 65-10 81-29c16-20 22-39 20-58c0 0-6-45-6-45c6-2 9-10 9-21c0-10-2-17-4-22c-3-5-5-8-7-9c-3-1-5-2-7-4c-3-2-4-5-5-9c-3-17-8-29-16-38c-8-9-12-17-12-25c0-20 6-36 18-48c12-12 34-24 65-36"/>
<glyph unicode="&#57406;" d="M317 142c62-22 93-42 93-62c0 0 0-54 0-54c0 0-410 0-410 0c0 0 0 103 0 103c12 5 26 9 42 13c32 12 54 24 66 36c12 12 18 28 18 48c0 8-4 16-12 25c-8 9-13 21-16 38c0 4-4 8-11 13c-8 4-12 14-13 31c0 5 1 10 2 13c2 4 4 6 5 6c0 0 2 2 2 2c-3 17-5 32-6 45c-2 19 5 38 20 58c16 19 43 29 82 29c39 0 66-10 82-29c16-20 23-39 22-58c0 0-8-45-8-45c7-2 10-10 10-21c-1-10-3-17-5-22c-2-5-5-8-7-9c-2-1-5-2-7-4c-3-2-4-5-5-9c-3-16-9-28-17-38c-8-9-12-17-12-25c0-20 7-36 19-48c12-12 34-24 66-36m118 140c0 0 77 0 77 0c0 0 0-52 0-52c0 0-77 0-77 0c0 0 0-76 0-76c0 0-51 0-51 0c0 0 0 76 0 76c0 0-77 0-77 0c0 0 0 52 0 52c0 0 77 0 77 0c0 0 0 76 0 76c0 0 51 0 51 0c0 0 0-76 0-76"/>
<glyph unicode="&#57407;" d="M512 31c0 0-115 0-115 0c0 0 0 77 0 77c0 18-5 32-15 41c-10 9-37 24-79 46c14 10 21 24 21 43c0 5-3 11-7 16c-5 6-8 15-10 27c0 2-3 5-7 8c-4 2-6 10-7 21c0 8 2 14 6 16c-2 11-3 21-4 30c-1 13 2 27 12 40c9 14 25 21 48 21c24 0 40-7 49-21c10-13 14-27 13-40c0 0-4-30-4-30c4-2 6-8 6-16c-1-11-3-19-7-21c-4-3-7-6-8-8c-2-12-5-21-9-27c-5-5-7-11-7-16c0-15 4-26 11-34c7-8 20-17 39-25c39-16 61-29 67-41c2-2 3-13 4-31c1-18 2-35 3-52c0 0 0-24 0-24m-250 134c62-27 93-48 93-64c0 0 0-70 0-70c0 0-355 0-355 0c0 0 0 94 0 94c0 15 14 28 43 40c26 11 44 22 53 33c10 11 15 26 15 45c0 7-4 14-10 22c-7 8-11 20-13 35c-1 3-4 7-9 11c-6 4-9 14-10 29c0 5 0 9 1 12c1 3 2 5 4 6c0 0 2 1 2 1c-2 16-4 30-5 42c-2 17 4 35 17 53c12 18 34 27 65 27c30 0 52-9 65-27c12-18 18-36 16-53c0 0-5-42-5-42c5-2 8-9 8-19c-2-15-5-25-11-29c-5-4-8-8-9-11c-2-15-6-27-13-35c-6-8-9-15-9-22c0-19 4-34 14-45c9-11 27-22 53-33"/>
<glyph unicode="&#57408;" d="M461 461c14 0 26-5 36-15c10-10 15-22 15-36c0 0 0-308 0-308c0-13-5-25-15-35c-10-11-22-16-36-16c0 0-410 0-410 0c-13 0-25 5-36 16c-10 10-15 22-15 35c0 0 0 308 0 308c0 14 5 26 15 36c11 10 23 15 36 15c0 0 410 0 410 0m0-359c0 0 0 308 0 308c0 0-410 0-410 0c0 0 0-308 0-308c0 0 410 0 410 0m-231 101c0 0 0-46 0-46c0 0-128 0-128 0c0 0 0 46 0 46c0 0 128 0 128 0m0 77c0 0 0-47 0-47c0 0-128 0-128 0c0 0 0 47 0 47c0 0 128 0 128 0m0 76c0 0 0-46 0-46c0 0-128 0-128 0c0 0 0 46 0 46c0 0 128 0 128 0m178-163c0 0 2-36 2-36c0 0-128 0-128 0c0 24 1 36 3 36c28 7 43 18 43 33c0 6-5 15-14 29c-9 14-14 29-14 45c0 38 15 56 46 56c31 0 46-18 46-56c0-16-5-31-14-45c-10-14-14-23-14-29c0-7 3-13 10-18c7-6 15-9 22-11c0 0 12-4 12-4"/>
<glyph unicode="&#57409;" d="M461 461c14 0 26-5 36-16c10-10 15-22 15-35c0 0 0-308 0-308c0-14-5-26-15-36c-10-10-22-15-36-15c0 0-410 0-410 0c-13 0-25 5-36 15c-10 10-15 22-15 36c0 0 0 308 0 308c0 13 5 25 15 35c11 11 23 16 36 16c0 0 410 0 410 0m-343-48c-6 0-10-2-14-6c-4-4-6-8-6-13c0-5 2-10 6-14c4-3 8-5 14-5c13 0 19 6 19 19c0 6-2 10-5 14c-4 3-9 5-14 5m-71-19c0-5 2-10 6-14c3-3 8-5 14-5c13 0 19 6 19 19c0 6-2 10-6 14c-3 3-8 5-13 5c-6 0-11-2-14-6c-4-4-6-8-6-13m415-292c0 0 0 236 0 236c0 0-411 0-411 0c0 0 0-236 0-236c0 0 411 0 411 0m0 277c0 0 0 31 0 31c0 0-308 0-308 0c0 0 0-31 0-31c0 0 308 0 308 0"/>
<glyph unicode="&#57410;" d="M169 195c-9-8-17-8-26 0c-8 8-8 16 0 25c0 0 101 97 101 97c9 9 17 9 24 0c0 0 101-97 101-97c8-9 8-17 0-25c-9-8-17-8-26 0c0 0-87 80-87 80c0 0-87-80-87-80"/>
<glyph unicode="&#57411;" d="M446 143c0 0-190 184-190 184c0 0-189-184-189-184c-9-7-18-7-26 0c-8 9-8 17 0 26c0 0 203 200 203 200c9 9 17 9 24 0c0 0 203-200 203-200c8-9 8-17 0-26c-9-7-17-7-25 0"/>
<glyph unicode="&#57412;" d="M461 410c14 0 26-6 36-16c10-10 15-22 15-36c0 0 0-281 0-281c0-15-5-27-15-37c-10-9-22-14-36-14c0 0-26 0-26 0c0 0 0 384 0 384c0 0 26 0 26 0m-461-52c0 14 5 26 15 36c11 10 23 16 36 16c0 0 26 0 26 0c0 0 0-384 0-384c0 0-26 0-26 0c-13 0-25 5-36 14c-10 10-15 22-15 37c0 0 0 281 0 281m343 105c0 0 0-53 0-53c0 0 56 0 56 0c0 0 0-384 0-384c0 0-286 0-286 0c0 0 0 384 0 384c0 0 56 0 56 0c0 0 0 53 0 53c33 16 62 23 87 23c25 0 54-7 87-23m-31-53c0 0 0 33 0 33c-17 9-36 13-56 13c-18 0-37-4-56-13c0 0 0-33 0-33c0 0 112 0 112 0"/>
<glyph unicode="&#57413;" d="M480 249c6-6 8-10 6-14c-2-4-6-6-14-6c0 0-43 0-43 0c0 0 0-158 0-158c0-5 0-9 0-11c-1-2-2-5-4-7c-3-2-7-3-12-3c0 0-105 0-105 0c0 0 0 159 0 159c0 0-104 0-104 0c0 0 0-159 0-159c0 0-99 0-99 0c-10 0-16 2-18 5c-3 4-4 9-4 16c0 0 0 158 0 158c0 0-43 0-43 0c-7 0-12 2-14 6c-1 4 0 8 6 14c0 0 205 206 205 206c5 5 12 8 19 8c8 0 14-3 20-8c0 0 204-206 204-206"/>
<glyph unicode="&#57414;" d="M440 406c24-22 36-49 36-80c0-32-12-58-36-80c0 0-184-169-184-169c0 0-184 169-184 169c-24 22-36 48-36 80c0 31 12 58 36 80c22 19 47 29 78 29c30 0 55-10 76-29c0 0 30-27 30-27c0 0 29 27 29 27c22 19 47 29 77 29c31 0 56-10 78-29m-27-134c14 14 21 32 21 54c0 22-6 39-19 51c-13 13-31 19-53 19c-17 0-35-8-53-24c0 0-53-47-53-47c0 0-54 47-54 47c-17 16-34 24-52 24c-22 0-40-6-54-19c-13-12-19-30-19-51c0-23 7-41 22-54c0 0 157-146 157-146c0 0 157 146 157 146"/>
</font>
</defs>
</svg>
